<svg width="1503" height="898" xmlns="http://www.w3.org/2000/svg" xmlns:xlink="http://www.w3.org/1999/xlink" xml:space="preserve" overflow="hidden"><g transform="translate(-1017 -774)"><g><path d="M1021.22 784.219 1576.12 784.219 1576.12 905.219 1021.22 905.219Z" fill="#C2C2C4" fill-rule="evenodd" fill-opacity="1"/><path d="M1576.12 784.219 1732.02 784.219 1732.02 905.219 1576.12 905.219Z" fill="#C2C2C4" fill-rule="evenodd" fill-opacity="1"/><path d="M1732.02 784.219 1887.93 784.219 1887.93 905.219 1732.02 905.219Z" fill="#C2C2C4" fill-rule="evenodd" fill-opacity="1"/><path d="M1887.93 784.219 2043.83 784.219 2043.83 905.219 1887.93 905.219Z" fill="#C2C2C4" fill-rule="evenodd" fill-opacity="1"/><path d="M2043.83 784.219 2199.74 784.219 2199.74 905.219 2043.83 905.219Z" fill="#C2C2C4" fill-rule="evenodd" fill-opacity="1"/><path d="M2199.74 784.219 2355.64 784.219 2355.64 905.219 2199.74 905.219Z" fill="#C2C2C4" fill-rule="evenodd" fill-opacity="1"/><path d="M2355.64 784.219 2511.55 784.219 2511.55 905.219 2355.64 905.219Z" fill="#C2C2C4" fill-rule="evenodd" fill-opacity="1"/><path d="M1021.22 905.219 1576.12 905.219 1576.12 1026.22 1021.22 1026.22Z" fill="#C2C2C4" fill-rule="evenodd" fill-opacity="1"/><path d="M1021.22 1026.22 1576.12 1026.22 1576.12 1147.22 1021.22 1147.22Z" fill="#C2C2C4" fill-rule="evenodd" fill-opacity="1"/><path d="M1021.22 1147.22 1576.12 1147.22 1576.12 1268.22 1021.22 1268.22Z" fill="#C2C2C4" fill-rule="evenodd" fill-opacity="1"/><path d="M1021.22 1268.22 1576.12 1268.22 1576.12 1389.22 1021.22 1389.22Z" fill="#C2C2C4" fill-rule="evenodd" fill-opacity="1"/><path d="M1021.22 1389.22 1576.12 1389.22 1576.12 1510.22 1021.22 1510.22Z" fill="#C2C2C4" fill-rule="evenodd" fill-opacity="1"/><path d="M1021.22 1510.22 1576.12 1510.22 1576.12 1631.22 1021.22 1631.22Z" fill="#C2C2C4" fill-rule="evenodd" fill-opacity="1"/><path d="M1576.12 781.927 1576.12 1633.51" stroke="#000000" stroke-width="4.58333" stroke-linecap="butt" stroke-linejoin="round" stroke-miterlimit="10" stroke-opacity="1" fill="none" fill-rule="evenodd"/><path d="M1732.02 781.927 1732.02 1633.51" stroke="#000000" stroke-width="4.58333" stroke-linecap="butt" stroke-linejoin="round" stroke-miterlimit="10" stroke-opacity="1" fill="none" fill-rule="evenodd"/><path d="M1887.93 781.927 1887.93 1633.51" stroke="#000000" stroke-width="4.58333" stroke-linecap="butt" stroke-linejoin="round" stroke-miterlimit="10" stroke-opacity="1" fill="none" fill-rule="evenodd"/><path d="M2043.83 781.927 2043.83 1633.51" stroke="#000000" stroke-width="4.58333" stroke-linecap="butt" stroke-linejoin="round" stroke-miterlimit="10" stroke-opacity="1" fill="none" fill-rule="evenodd"/><path d="M2199.74 781.927 2199.74 1633.51" stroke="#000000" stroke-width="4.58333" stroke-linecap="butt" stroke-linejoin="round" stroke-miterlimit="10" stroke-opacity="1" fill="none" fill-rule="evenodd"/><path d="M2355.64 781.927 2355.64 1633.51" stroke="#000000" stroke-width="4.58333" stroke-linecap="butt" stroke-linejoin="round" stroke-miterlimit="10" stroke-opacity="1" fill="none" fill-rule="evenodd"/><path d="M1018.93 905.219 2513.84 905.219" stroke="#000000" stroke-width="4.58333" stroke-linecap="butt" stroke-linejoin="round" stroke-miterlimit="10" stroke-opacity="1" fill="none" fill-rule="evenodd"/><path d="M1018.93 1026.22 2513.84 1026.22" stroke="#000000" stroke-width="4.58333" stroke-linecap="butt" stroke-linejoin="round" stroke-miterlimit="10" stroke-opacity="1" fill="none" fill-rule="evenodd"/><path d="M1018.93 1147.22 2513.84 1147.22" stroke="#000000" stroke-width="4.58333" stroke-linecap="butt" stroke-linejoin="round" stroke-miterlimit="10" stroke-opacity="1" fill="none" fill-rule="evenodd"/><path d="M1018.93 1268.22 2513.84 1268.22" stroke="#000000" stroke-width="4.58333" stroke-linecap="butt" stroke-linejoin="round" stroke-miterlimit="10" stroke-opacity="1" fill="none" fill-rule="evenodd"/><path d="M1018.93 1389.22 2513.84 1389.22" stroke="#000000" stroke-width="4.58333" stroke-linecap="butt" stroke-linejoin="round" stroke-miterlimit="10" stroke-opacity="1" fill="none" fill-rule="evenodd"/><path d="M1018.93 1510.22 2513.84 1510.22" stroke="#000000" stroke-width="4.58333" stroke-linecap="butt" stroke-linejoin="round" stroke-miterlimit="10" stroke-opacity="1" fill="none" fill-rule="evenodd"/><path d="M1021.22 781.927 1021.22 1633.51" stroke="#000000" stroke-width="4.58333" stroke-linecap="butt" stroke-linejoin="round" stroke-miterlimit="10" stroke-opacity="1" fill="none" fill-rule="evenodd"/><path d="M2511.55 781.927 2511.55 1633.51" stroke="#000000" stroke-width="4.58333" stroke-linecap="butt" stroke-linejoin="round" stroke-miterlimit="10" stroke-opacity="1" fill="none" fill-rule="evenodd"/><path d="M1018.93 784.219 2513.84 784.219" stroke="#000000" stroke-width="4.58333" stroke-linecap="butt" stroke-linejoin="round" stroke-miterlimit="10" stroke-opacity="1" fill="none" fill-rule="evenodd"/><path d="M1018.93 1631.22 2513.84 1631.22" stroke="#000000" stroke-width="4.58333" stroke-linecap="butt" stroke-linejoin="round" stroke-miterlimit="10" stroke-opacity="1" fill="none" fill-rule="evenodd"/><text fill="#000000" fill-opacity="1" font-family="Arial,Arial_MSFontService,sans-serif" font-style="normal" font-variant="normal" font-weight="400" font-stretch="normal" font-size="73" text-anchor="start" direction="ltr" writing-mode="lr-tb" unicode-bidi="normal" text-decoration="none" transform="matrix(1 0 0 1 2413.26 872)">6</text><text fill="#000000" fill-opacity="1" font-family="Arial,Arial_MSFontService,sans-serif" font-style="normal" font-variant="normal" font-weight="400" font-stretch="normal" font-size="73" text-anchor="start" direction="ltr" writing-mode="lr-tb" unicode-bidi="normal" text-decoration="none" transform="matrix(1 0 0 1 2257.35 872)">5</text><text fill="#000000" fill-opacity="1" font-family="Arial,Arial_MSFontService,sans-serif" font-style="normal" font-variant="normal" font-weight="400" font-stretch="normal" font-size="73" text-anchor="start" direction="ltr" writing-mode="lr-tb" unicode-bidi="normal" text-decoration="none" transform="matrix(1 0 0 1 2101.45 872)">4</text><text fill="#000000" fill-opacity="1" font-family="Arial,Arial_MSFontService,sans-serif" font-style="normal" font-variant="normal" font-weight="400" font-stretch="normal" font-size="73" text-anchor="start" direction="ltr" writing-mode="lr-tb" unicode-bidi="normal" text-decoration="none" transform="matrix(1 0 0 1 1945.54 872)">3</text><text fill="#000000" fill-opacity="1" font-family="Arial,Arial_MSFontService,sans-serif" font-style="normal" font-variant="normal" font-weight="400" font-stretch="normal" font-size="73" text-anchor="start" direction="ltr" writing-mode="lr-tb" unicode-bidi="normal" text-decoration="none" transform="matrix(1 0 0 1 1789.64 872)">2</text><text fill="#000000" fill-opacity="1" font-family="Arial,Arial_MSFontService,sans-serif" font-style="normal" font-variant="normal" font-weight="400" font-stretch="normal" font-size="73" text-anchor="start" direction="ltr" writing-mode="lr-tb" unicode-bidi="normal" text-decoration="none" transform="matrix(1 0 0 1 1633.73 872)">1</text><g><text fill="#000000" fill-opacity="1" font-family="Arial,Arial_MSFontService,sans-serif" font-style="normal" font-variant="normal" font-weight="400" font-stretch="normal" font-size="73" text-anchor="start" direction="ltr" writing-mode="lr-tb" unicode-bidi="normal" text-decoration="none" transform="matrix(1 0 0 1 1054.22 872)">User ↓ Item →</text></g><text fill="#000000" fill-opacity="1" font-family="Arial,Arial_MSFontService,sans-serif" font-style="normal" font-variant="normal" font-weight="400" font-stretch="normal" font-size="73" text-anchor="start" direction="ltr" writing-mode="lr-tb" unicode-bidi="normal" text-decoration="none" transform="matrix(1 0 0 1 2413.26 993)">4</text><text fill="#000000" fill-opacity="1" font-family="Arial,Arial_MSFontService,sans-serif" font-style="normal" font-variant="normal" font-weight="400" font-stretch="normal" font-size="73" text-anchor="start" direction="ltr" writing-mode="lr-tb" unicode-bidi="normal" text-decoration="none" transform="matrix(1 0 0 1 2257.35 993)">5</text><text fill="#000000" fill-opacity="1" font-family="Arial,Arial_MSFontService,sans-serif" font-style="normal" font-variant="normal" font-weight="400" font-stretch="normal" font-size="73" text-anchor="start" direction="ltr" writing-mode="lr-tb" unicode-bidi="normal" text-decoration="none" transform="matrix(1 0 0 1 1945.54 993)">1</text><text fill="#000000" fill-opacity="1" font-family="Arial,Arial_MSFontService,sans-serif" font-style="normal" font-variant="normal" font-weight="400" font-stretch="normal" font-size="73" text-anchor="start" direction="ltr" writing-mode="lr-tb" unicode-bidi="normal" text-decoration="none" transform="matrix(1 0 0 1 1789.64 993)">3</text><text fill="#000000" fill-opacity="1" font-family="Arial,Arial_MSFontService,sans-serif" font-style="normal" font-variant="normal" font-weight="400" font-stretch="normal" font-size="73" text-anchor="start" direction="ltr" writing-mode="lr-tb" unicode-bidi="normal" text-decoration="none" transform="matrix(1 0 0 1 1633.73 993)">1</text><text fill="#000000" fill-opacity="1" font-family="Arial,Arial_MSFontService,sans-serif" font-style="normal" font-variant="normal" font-weight="400" font-stretch="normal" font-size="73" text-anchor="start" direction="ltr" writing-mode="lr-tb" unicode-bidi="normal" text-decoration="none" transform="matrix(1 0 0 1 2257.35 1114)">1</text><text fill="#000000" fill-opacity="1" font-family="Arial,Arial_MSFontService,sans-serif" font-style="normal" font-variant="normal" font-weight="400" font-stretch="normal" font-size="73" text-anchor="start" direction="ltr" writing-mode="lr-tb" unicode-bidi="normal" text-decoration="none" transform="matrix(1 0 0 1 1945.54 1114)">4</text><text fill="#000000" fill-opacity="1" font-family="Arial,Arial_MSFontService,sans-serif" font-style="normal" font-variant="normal" font-weight="400" font-stretch="normal" font-size="73" text-anchor="start" direction="ltr" writing-mode="lr-tb" unicode-bidi="normal" text-decoration="none" transform="matrix(1 0 0 1 1789.64 1114)">4</text><text fill="#000000" fill-opacity="1" font-family="Arial,Arial_MSFontService,sans-serif" font-style="normal" font-variant="normal" font-weight="400" font-stretch="normal" font-size="73" text-anchor="start" direction="ltr" writing-mode="lr-tb" unicode-bidi="normal" text-decoration="none" transform="matrix(1 0 0 1 1633.73 1114)">5</text><text fill="#000000" fill-opacity="1" font-family="Arial,Arial_MSFontService,sans-serif" font-style="normal" font-variant="normal" font-weight="400" font-stretch="normal" font-size="73" text-anchor="start" direction="ltr" writing-mode="lr-tb" unicode-bidi="normal" text-decoration="none" transform="matrix(1 0 0 1 2257.35 1235)">5</text><text fill="#000000" fill-opacity="1" font-family="Arial,Arial_MSFontService,sans-serif" font-style="normal" font-variant="normal" font-weight="400" font-stretch="normal" font-size="73" text-anchor="start" direction="ltr" writing-mode="lr-tb" unicode-bidi="normal" text-decoration="none" transform="matrix(1 0 0 1 2101.45 1235)">4</text><text fill="#000000" fill-opacity="1" font-family="Arial,Arial_MSFontService,sans-serif" font-style="normal" font-variant="normal" font-weight="400" font-stretch="normal" font-size="73" text-anchor="start" direction="ltr" writing-mode="lr-tb" unicode-bidi="normal" text-decoration="none" transform="matrix(1 0 0 1 1945.54 1235)">5</text><text fill="#000000" fill-opacity="1" font-family="Arial,Arial_MSFontService,sans-serif" font-style="normal" font-variant="normal" font-weight="400" font-stretch="normal" font-size="73" text-anchor="start" direction="ltr" writing-mode="lr-tb" unicode-bidi="normal" text-decoration="none" transform="matrix(1 0 0 1 1633.73 1235)">2</text><text fill="#000000" fill-opacity="1" font-family="Arial,Arial_MSFontService,sans-serif" font-style="normal" font-variant="normal" font-weight="400" font-stretch="normal" font-size="73" text-anchor="start" direction="ltr" writing-mode="lr-tb" unicode-bidi="normal" text-decoration="none" transform="matrix(1 0 0 1 2413.26 1356)">5</text><text fill="#000000" fill-opacity="1" font-family="Arial,Arial_MSFontService,sans-serif" font-style="normal" font-variant="normal" font-weight="400" font-stretch="normal" font-size="73" text-anchor="start" direction="ltr" writing-mode="lr-tb" unicode-bidi="normal" text-decoration="none" transform="matrix(1 0 0 1 1789.64 1356)">3</text><text fill="#000000" fill-opacity="1" font-family="Arial,Arial_MSFontService,sans-serif" font-style="normal" font-variant="normal" font-weight="400" font-stretch="normal" font-size="73" text-anchor="start" direction="ltr" writing-mode="lr-tb" unicode-bidi="normal" text-decoration="none" transform="matrix(1 0 0 1 2257.35 1477)">4</text><text fill="#000000" fill-opacity="1" font-family="Arial,Arial_MSFontService,sans-serif" font-style="normal" font-variant="normal" font-weight="400" font-stretch="normal" font-size="73" text-anchor="start" direction="ltr" writing-mode="lr-tb" unicode-bidi="normal" text-decoration="none" transform="matrix(1 0 0 1 2101.45 1477)">5</text><text fill="#000000" fill-opacity="1" font-family="Arial,Arial_MSFontService,sans-serif" font-style="normal" font-variant="normal" font-weight="400" font-stretch="normal" font-size="73" text-anchor="start" direction="ltr" writing-mode="lr-tb" unicode-bidi="normal" text-decoration="none" transform="matrix(1 0 0 1 1789.64 1477)">2</text><text fill="#000000" fill-opacity="1" font-family="Arial,Arial_MSFontService,sans-serif" font-style="normal" font-variant="normal" font-weight="400" font-stretch="normal" font-size="73" text-anchor="start" direction="ltr" writing-mode="lr-tb" unicode-bidi="normal" text-decoration="none" transform="matrix(1 0 0 1 2413.26 1598)">5</text><text fill="#000000" fill-opacity="1" font-family="Arial,Arial_MSFontService,sans-serif" font-style="normal" font-variant="normal" font-weight="400" font-stretch="normal" font-size="73" text-anchor="start" direction="ltr" writing-mode="lr-tb" unicode-bidi="normal" text-decoration="none" transform="matrix(1 0 0 1 2101.45 1598)">4</text><text fill="#000000" fill-opacity="1" font-family="Arial,Arial_MSFontService,sans-serif" font-style="normal" font-variant="normal" font-weight="400" font-stretch="normal" font-size="73" text-anchor="start" direction="ltr" writing-mode="lr-tb" unicode-bidi="normal" text-decoration="none" transform="matrix(1 0 0 1 1945.54 1598)">4</text><g><g><g><path d="M108.333 89.375C108.263 85.9822 106.672 82.8006 104 80.7083 98.0416 75.8333 90.4583 72.5833 82.875 70.4166 77.0814 68.6431 71.0588 67.7306 65 67.7083 58.9478 67.8127 52.9365 68.7235 47.125 70.4166 39.5515 72.6266 32.4083 76.1067 26 80.7083 23.3282 82.8006 21.7373 85.9822 21.6667 89.375L21.6667 111.042 108.333 111.042Z" fill="#000000" fill-rule="nonzero" fill-opacity="1" transform="matrix(1 0 0 1 1185 909)"/><path d="M88.1698 56.3333C86.9239 51.4583 91.6906 39.2708 91.7312 30.6854 91.7312 23.8198 89.7812 20.7458 86.0979 18.6604 83.9718 17.4552 79.0698 18.5656 79.0698 18.5656 79.0698 18.5656 76.5375 13.7719 68.0604 11.1312 61.0947 9.23478 53.6609 10.1847 47.3958 13.7719 42.1552 17.1573 39.6229 20.8812 39.501 33.6917 39.3927 45.4323 41.0041 55.8593 40.2594 60.775 39.9159 63.4959 38.881 66.0834 37.2531 68.2906 37.2531 68.2906 45.3781 69.3333 49.9146 66.9364 52.1974 65.4047 54.3612 63.7027 56.3875 61.8448 49.4376 58.6034 44.3713 52.3378 42.6562 44.8635 42.4802 44.2135 41.3021 39.9614 43.1844 37.5781 44.2135 36.2239 46.5698 35.8448 50.4969 35.1541 55.1977 34.5349 59.7855 33.2444 64.1198 31.3219 68.9921 28.8718 73.5106 25.7742 77.5531 22.1135 78.086 21.5888 78.9433 21.5953 79.4681 22.1282 79.6676 22.3307 79.7983 22.5909 79.8416 22.8719 80.1641 25.0995 80.9382 27.2376 82.1166 29.1552 82.6686 29.8623 83.3484 30.4595 84.1208 30.9156 85.0212 31.4551 85.7967 32.1797 86.3958 33.0416 87.3736 34.9501 87.9279 37.0471 88.0208 39.1896 87.9322 49.0715 82.061 57.9843 73.0166 61.9666 74.7229 63.4698 76.9573 65.325 79.4218 67.1125 83.4843 70.051 93.302 65.9885 93.302 65.9885 93.302 65.9885 90.1333 64.0927 88.1698 56.3333Z" fill="#000000" fill-rule="nonzero" fill-opacity="1" transform="matrix(1 0 0 1 1185 909)"/><path d="M85.3125 39.2708C85.2402 37.634 84.8443 36.0277 84.1479 34.5448 83.7512 33.9844 83.2327 33.5214 82.6312 33.1906 81.5955 32.5667 80.6786 31.7645 79.9229 30.8208 78.8333 29.2522 78.0478 27.4928 77.6073 25.6344 73.8266 28.8087 69.6915 31.535 65.2843 33.7594 60.7096 35.7944 55.8665 37.1625 50.9031 37.8219 48.6146 38.2281 45.7573 38.7291 45.2698 39.2437 44.4573 40.3 44.8771 42.9948 45.2698 44.1323 47.5854 53.8958 55.8729 60.9375 65 60.9375 75.8333 60.9375 85.3125 50.8083 85.3125 39.2708Z" fill="#000000" fill-rule="nonzero" fill-opacity="1" transform="matrix(1 0 0 1 1185 909)"/></g></g></g><text fill="#FFFFFF" fill-opacity="1" font-family="Arial,Arial_MSFontService,sans-serif" font-style="normal" font-variant="normal" font-weight="700" font-stretch="normal" font-size="73" text-anchor="start" direction="ltr" writing-mode="lr-tb" unicode-bidi="normal" text-decoration="none" transform="matrix(1 0 0 1 1231.65 1002)">1</text><g><g><g><path d="M1271.67 1313.62C1271.67 1325.59 1261.97 1335.29 1250 1335.29 1238.03 1335.29 1228.33 1325.59 1228.33 1313.62 1228.33 1301.66 1238.03 1291.96 1250 1291.96 1261.97 1291.96 1271.67 1301.66 1271.67 1313.62Z" fill="#000000" fill-rule="nonzero" fill-opacity="1"/><path d="M1293.33 1384.04 1293.33 1362.37C1293.33 1359.12 1291.71 1355.87 1289 1353.71 1283.04 1348.83 1275.46 1345.58 1267.87 1343.42 1262.46 1341.79 1256.5 1340.71 1250 1340.71 1244.04 1340.71 1238.08 1341.79 1232.12 1343.42 1224.54 1345.58 1216.96 1349.37 1211 1353.71 1208.29 1355.87 1206.67 1359.12 1206.67 1362.37L1206.67 1384.04 1293.33 1384.04Z" fill="#000000" fill-rule="nonzero" fill-opacity="1"/></g></g></g><text fill="#FFFFFF" fill-opacity="1" font-family="Arial,Arial_MSFontService,sans-serif" font-style="normal" font-variant="normal" font-weight="700" font-stretch="normal" font-size="73" text-anchor="start" direction="ltr" writing-mode="lr-tb" unicode-bidi="normal" text-decoration="none" transform="matrix(1 0 0 1 1230.9 1369)">4</text><g><g><g><path d="M107.5 88.6874C107.43 85.3208 105.851 82.1637 103.2 80.0874 97.2874 75.2499 89.7624 72.0249 82.2374 69.8749 76.4885 68.115 70.5122 67.2096 64.4999 67.1874 58.4943 67.291 52.5293 68.1949 46.7625 69.8749 39.2473 72.0679 32.159 75.5212 25.8 80.0874 23.1488 82.1637 21.5701 85.3208 21.5 88.6874L21.5 110.187 107.5 110.187Z" fill="#000000" fill-rule="nonzero" fill-opacity="1" transform="matrix(1.00775 0 0 1 1185 1389)"/><path d="M87.4915 55.9C86.2552 51.0625 90.9852 38.9687 91.0256 30.4494 91.0256 23.6365 89.0906 20.5862 85.4356 18.5169 83.3259 17.3209 78.4615 18.4228 78.4615 18.4228 78.4615 18.4228 75.9487 13.6659 67.5368 11.0456 60.6247 9.16374 53.2481 10.1064 47.0312 13.6659 41.8309 17.0253 39.3181 20.7206 39.1972 33.4325 39.0897 45.0828 40.6887 55.4296 39.9497 60.3075 39.6089 63.0075 38.5819 65.5751 36.9665 67.7653 36.9665 67.7653 45.029 68.7999 49.5306 66.4215 51.7959 64.9016 53.9431 63.2126 55.9537 61.369 49.0573 58.1526 44.0299 51.9352 42.3281 44.5184 42.1534 43.8734 40.9843 39.654 42.8522 37.289 43.8734 35.9453 46.2115 35.569 50.1084 34.8837 54.7731 34.2692 59.3256 32.9886 63.6265 31.0809 68.4613 28.6497 72.9451 25.576 76.9565 21.9434 77.4853 21.4227 78.336 21.4292 78.8568 21.9579 79.0548 22.159 79.1844 22.4171 79.2274 22.6959 79.5474 24.9064 80.3156 27.028 81.4849 28.9309 82.0326 29.6326 82.7072 30.2252 83.4737 30.6778 84.3671 31.2131 85.1367 31.9322 85.7312 32.7875 86.7015 34.6812 87.2515 36.7621 87.3437 38.8881 87.2558 48.694 81.4297 57.5383 72.4549 61.4899 74.1481 62.9815 76.3653 64.8224 78.8109 66.5962 82.8421 69.5121 92.5843 65.4809 92.5843 65.4809 92.5843 65.4809 89.4399 63.5996 87.4915 55.9Z" fill="#000000" fill-rule="nonzero" fill-opacity="1" transform="matrix(1.00775 0 0 1 1185 1389)"/><path d="M84.6562 38.9687C84.5844 37.3445 84.1917 35.7506 83.5006 34.279 83.107 33.723 82.5925 33.2636 81.9956 32.9353 80.9679 32.3162 80.058 31.5202 79.3081 30.5837 78.2269 29.0271 77.4474 27.2813 77.0103 25.4372 73.2586 28.587 69.1554 31.2924 64.7821 33.4997 60.2425 35.519 55.4368 36.8766 50.5115 37.5309 48.2406 37.934 45.4053 38.4312 44.9215 38.9418 44.1153 39.99 44.5318 42.664 44.9215 43.7928 47.2193 53.4812 55.4431 60.4687 64.4999 60.4687 75.2499 60.4687 84.6562 50.4175 84.6562 38.9687Z" fill="#000000" fill-rule="nonzero" fill-opacity="1" transform="matrix(1.00775 0 0 1 1185 1389)"/></g></g></g><text fill="#FFFFFF" fill-opacity="1" font-family="Arial,Arial_MSFontService,sans-serif" font-style="normal" font-variant="normal" font-weight="700" font-stretch="normal" font-size="73" text-anchor="start" direction="ltr" writing-mode="lr-tb" unicode-bidi="normal" text-decoration="none" transform="matrix(1 0 0 1 1232.56 1487)">5</text><g><g><g><path d="M1293.33 1238.38C1293.26 1234.98 1291.67 1231.8 1289 1229.71 1283.04 1224.83 1275.46 1221.58 1267.87 1219.42 1262.08 1217.64 1256.06 1216.73 1250 1216.71 1243.95 1216.81 1237.94 1217.72 1232.12 1219.42 1224.55 1221.63 1217.41 1225.11 1211 1229.71 1208.33 1231.8 1206.74 1234.98 1206.67 1238.38L1206.67 1260.04 1293.33 1260.04Z" fill="#000000" fill-rule="nonzero" fill-opacity="1"/><path d="M1273.17 1205.33C1271.92 1200.46 1276.69 1188.27 1276.73 1179.69 1276.73 1172.82 1274.78 1169.75 1271.1 1167.66 1268.97 1166.46 1264.07 1167.57 1264.07 1167.57 1264.07 1167.57 1261.54 1162.77 1253.06 1160.13 1246.09 1158.23 1238.66 1159.18 1232.4 1162.77 1227.16 1166.16 1224.62 1169.88 1224.5 1182.69 1224.39 1194.43 1226 1204.86 1225.26 1209.78 1224.92 1212.5 1223.88 1215.08 1222.25 1217.29 1222.25 1217.29 1230.38 1218.33 1234.91 1215.94 1237.2 1214.4 1239.36 1212.7 1241.39 1210.84 1234.44 1207.6 1229.37 1201.34 1227.66 1193.86 1227.48 1193.21 1226.3 1188.96 1228.18 1186.58 1229.21 1185.22 1231.57 1184.84 1235.5 1184.15 1240.2 1183.54 1244.79 1182.24 1249.12 1180.32 1253.99 1177.87 1258.51 1174.77 1262.55 1171.11 1263.09 1170.59 1263.94 1170.6 1264.47 1171.13 1264.67 1171.33 1264.8 1171.59 1264.84 1171.87 1265.16 1174.1 1265.94 1176.24 1267.12 1178.16 1267.67 1178.86 1268.35 1179.46 1269.12 1179.92 1270.02 1180.46 1270.8 1181.18 1271.4 1182.04 1272.37 1183.95 1272.93 1186.05 1273.02 1188.19 1272.93 1198.07 1267.06 1206.98 1258.02 1210.97 1259.72 1212.47 1261.96 1214.33 1264.42 1216.11 1268.48 1219.05 1278.3 1214.99 1278.3 1214.99 1278.3 1214.99 1275.13 1213.09 1273.17 1205.33Z" fill="#000000" fill-rule="nonzero" fill-opacity="1"/><path d="M1270.31 1188.27C1270.24 1186.63 1269.84 1185.03 1269.15 1183.54 1268.75 1182.98 1268.23 1182.52 1267.63 1182.19 1266.6 1181.57 1265.68 1180.76 1264.92 1179.82 1263.83 1178.25 1263.05 1176.49 1262.61 1174.63 1258.83 1177.81 1254.69 1180.54 1250.28 1182.76 1245.71 1184.79 1240.87 1186.16 1235.9 1186.82 1233.61 1187.23 1230.76 1187.73 1230.27 1188.24 1229.46 1189.3 1229.88 1191.99 1230.27 1193.13 1232.59 1202.9 1240.87 1209.94 1250 1209.94 1260.83 1209.94 1270.31 1199.81 1270.31 1188.27Z" fill="#000000" fill-rule="nonzero" fill-opacity="1"/></g></g></g><text fill="#FFFFFF" fill-opacity="1" font-family="Arial,Arial_MSFontService,sans-serif" font-style="normal" font-variant="normal" font-weight="700" font-stretch="normal" font-size="73" text-anchor="start" direction="ltr" writing-mode="lr-tb" unicode-bidi="normal" text-decoration="none" transform="matrix(1 0 0 1 1231.65 1250)">3</text><g><g><g><path d="M1271.67 1062.62C1271.67 1074.59 1261.97 1084.29 1250 1084.29 1238.03 1084.29 1228.33 1074.59 1228.33 1062.62 1228.33 1050.66 1238.03 1040.96 1250 1040.96 1261.97 1040.96 1271.67 1050.66 1271.67 1062.62Z" fill="#000000" fill-rule="nonzero" fill-opacity="1"/><path d="M1293.33 1133.04 1293.33 1111.37C1293.33 1108.12 1291.71 1104.87 1289 1102.71 1283.04 1097.83 1275.46 1094.58 1267.87 1092.42 1262.46 1090.79 1256.5 1089.71 1250 1089.71 1244.04 1089.71 1238.08 1090.79 1232.12 1092.42 1224.54 1094.58 1216.96 1098.37 1211 1102.71 1208.29 1104.87 1206.67 1108.12 1206.67 1111.37L1206.67 1133.04 1293.33 1133.04Z" fill="#000000" fill-rule="nonzero" fill-opacity="1"/></g></g></g><text fill="#FFFFFF" fill-opacity="1" font-family="Arial,Arial_MSFontService,sans-serif" font-style="normal" font-variant="normal" font-weight="700" font-stretch="normal" font-size="73" text-anchor="start" direction="ltr" writing-mode="lr-tb" unicode-bidi="normal" text-decoration="none" transform="matrix(1 0 0 1 1229.6 1120)">2</text><g><g><g><path d="M1271.67 1546.62C1271.67 1558.59 1261.97 1568.29 1250 1568.29 1238.03 1568.29 1228.33 1558.59 1228.33 1546.62 1228.33 1534.66 1238.03 1524.96 1250 1524.96 1261.97 1524.96 1271.67 1534.66 1271.67 1546.62Z" fill="#000000" fill-rule="nonzero" fill-opacity="1"/><path d="M1293.33 1617.04 1293.33 1595.38C1293.33 1592.12 1291.71 1588.88 1289 1586.71 1283.04 1581.83 1275.46 1578.58 1267.87 1576.42 1262.46 1574.79 1256.5 1573.71 1250 1573.71 1244.04 1573.71 1238.08 1574.79 1232.12 1576.42 1224.54 1578.58 1216.96 1582.38 1211 1586.71 1208.29 1588.88 1206.67 1592.12 1206.67 1595.38L1206.67 1617.04 1293.33 1617.04Z" fill="#000000" fill-rule="nonzero" fill-opacity="1"/></g></g></g><text fill="#FFFFFF" fill-opacity="1" font-family="Arial,Arial_MSFontService,sans-serif" font-style="normal" font-variant="normal" font-weight="700" font-stretch="normal" font-size="73" text-anchor="start" direction="ltr" writing-mode="lr-tb" unicode-bidi="normal" text-decoration="none" transform="matrix(1 0 0 1 1228.21 1608)">6</text></g></g></svg>