<svg width="1504" height="523" xmlns="http://www.w3.org/2000/svg" xmlns:xlink="http://www.w3.org/1999/xlink" xml:space="preserve" overflow="hidden"><g transform="translate(-1081 -916)"><g><path d="M1088.44 927.431 1643.33 927.431 1643.33 1048.43 1088.44 1048.43Z" fill="#C2C2C4" fill-rule="evenodd" fill-opacity="1"/><path d="M1643.33 927.431 1799.24 927.431 1799.24 1048.43 1643.33 1048.43Z" fill="#C2C2C4" fill-rule="evenodd" fill-opacity="1"/><path d="M1799.24 927.431 1955.14 927.431 1955.14 1048.43 1799.24 1048.43Z" fill="#C2C2C4" fill-rule="evenodd" fill-opacity="1"/><path d="M1955.14 927.431 2111.05 927.431 2111.05 1048.43 1955.14 1048.43Z" fill="#C2C2C4" fill-rule="evenodd" fill-opacity="1"/><path d="M2111.05 927.431 2266.95 927.431 2266.95 1048.43 2111.05 1048.43Z" fill="#C2C2C4" fill-rule="evenodd" fill-opacity="1"/><path d="M2266.95 927.431 2422.86 927.431 2422.86 1048.43 2266.95 1048.43Z" fill="#C2C2C4" fill-rule="evenodd" fill-opacity="1"/><path d="M2422.86 927.431 2578.76 927.431 2578.76 1048.43 2422.86 1048.43Z" fill="#C2C2C4" fill-rule="evenodd" fill-opacity="1"/><path d="M1088.44 1048.43 1643.33 1048.43 1643.33 1169.43 1088.44 1169.43Z" fill="#C2C2C4" fill-rule="evenodd" fill-opacity="1"/><path d="M1088.44 1169.43 1643.33 1169.43 1643.33 1290.43 1088.44 1290.43Z" fill="#C2C2C4" fill-rule="evenodd" fill-opacity="1"/><path d="M1088.44 1290.43 1643.33 1290.43 1643.33 1411.43 1088.44 1411.43Z" fill="#C2C2C4" fill-rule="evenodd" fill-opacity="1"/><path d="M1643.33 925.139 1643.33 1413.72" stroke="#000000" stroke-width="4.58333" stroke-linecap="butt" stroke-linejoin="round" stroke-miterlimit="10" stroke-opacity="1" fill="none" fill-rule="evenodd"/><path d="M1799.24 925.139 1799.24 1413.72" stroke="#000000" stroke-width="4.58333" stroke-linecap="butt" stroke-linejoin="round" stroke-miterlimit="10" stroke-opacity="1" fill="none" fill-rule="evenodd"/><path d="M1955.14 925.139 1955.14 1413.72" stroke="#000000" stroke-width="4.58333" stroke-linecap="butt" stroke-linejoin="round" stroke-miterlimit="10" stroke-opacity="1" fill="none" fill-rule="evenodd"/><path d="M2111.05 925.139 2111.05 1413.72" stroke="#000000" stroke-width="4.58333" stroke-linecap="butt" stroke-linejoin="round" stroke-miterlimit="10" stroke-opacity="1" fill="none" fill-rule="evenodd"/><path d="M2266.95 925.139 2266.95 1413.72" stroke="#000000" stroke-width="4.58333" stroke-linecap="butt" stroke-linejoin="round" stroke-miterlimit="10" stroke-opacity="1" fill="none" fill-rule="evenodd"/><path d="M2422.86 925.139 2422.86 1413.72" stroke="#000000" stroke-width="4.58333" stroke-linecap="butt" stroke-linejoin="round" stroke-miterlimit="10" stroke-opacity="1" fill="none" fill-rule="evenodd"/><path d="M1086.14 1048.43 2581.06 1048.43" stroke="#000000" stroke-width="4.58333" stroke-linecap="butt" stroke-linejoin="round" stroke-miterlimit="10" stroke-opacity="1" fill="none" fill-rule="evenodd"/><path d="M1086.14 1169.43 2581.06 1169.43" stroke="#000000" stroke-width="4.58333" stroke-linecap="butt" stroke-linejoin="round" stroke-miterlimit="10" stroke-opacity="1" fill="none" fill-rule="evenodd"/><path d="M1086.14 1290.43 2581.06 1290.43" stroke="#000000" stroke-width="4.58333" stroke-linecap="butt" stroke-linejoin="round" stroke-miterlimit="10" stroke-opacity="1" fill="none" fill-rule="evenodd"/><path d="M1088.44 925.139 1088.44 1413.72" stroke="#000000" stroke-width="4.58333" stroke-linecap="butt" stroke-linejoin="round" stroke-miterlimit="10" stroke-opacity="1" fill="none" fill-rule="evenodd"/><path d="M2578.76 925.139 2578.76 1413.72" stroke="#000000" stroke-width="4.58333" stroke-linecap="butt" stroke-linejoin="round" stroke-miterlimit="10" stroke-opacity="1" fill="none" fill-rule="evenodd"/><path d="M1086.14 927.431 2581.06 927.431" stroke="#000000" stroke-width="4.58333" stroke-linecap="butt" stroke-linejoin="round" stroke-miterlimit="10" stroke-opacity="1" fill="none" fill-rule="evenodd"/><path d="M1086.14 1411.43 2581.06 1411.43" stroke="#000000" stroke-width="4.58333" stroke-linecap="butt" stroke-linejoin="round" stroke-miterlimit="10" stroke-opacity="1" fill="none" fill-rule="evenodd"/><text fill="#000000" fill-opacity="1" font-family="Arial,Arial_MSFontService,sans-serif" font-style="normal" font-variant="normal" font-weight="400" font-stretch="normal" font-size="73" text-anchor="start" direction="ltr" writing-mode="lr-tb" unicode-bidi="normal" text-decoration="none" transform="matrix(1 0 0 1 2480.47 1015)">6</text><text fill="#000000" fill-opacity="1" font-family="Arial,Arial_MSFontService,sans-serif" font-style="normal" font-variant="normal" font-weight="400" font-stretch="normal" font-size="73" text-anchor="start" direction="ltr" writing-mode="lr-tb" unicode-bidi="normal" text-decoration="none" transform="matrix(1 0 0 1 2324.57 1015)">5</text><text fill="#000000" fill-opacity="1" font-family="Arial,Arial_MSFontService,sans-serif" font-style="normal" font-variant="normal" font-weight="400" font-stretch="normal" font-size="73" text-anchor="start" direction="ltr" writing-mode="lr-tb" unicode-bidi="normal" text-decoration="none" transform="matrix(1 0 0 1 2168.66 1015)">4</text><text fill="#000000" fill-opacity="1" font-family="Arial,Arial_MSFontService,sans-serif" font-style="normal" font-variant="normal" font-weight="400" font-stretch="normal" font-size="73" text-anchor="start" direction="ltr" writing-mode="lr-tb" unicode-bidi="normal" text-decoration="none" transform="matrix(1 0 0 1 2012.76 1015)">3</text><text fill="#000000" fill-opacity="1" font-family="Arial,Arial_MSFontService,sans-serif" font-style="normal" font-variant="normal" font-weight="400" font-stretch="normal" font-size="73" text-anchor="start" direction="ltr" writing-mode="lr-tb" unicode-bidi="normal" text-decoration="none" transform="matrix(1 0 0 1 1856.85 1015)">2</text><text fill="#000000" fill-opacity="1" font-family="Arial,Arial_MSFontService,sans-serif" font-style="normal" font-variant="normal" font-weight="400" font-stretch="normal" font-size="73" text-anchor="start" direction="ltr" writing-mode="lr-tb" unicode-bidi="normal" text-decoration="none" transform="matrix(1 0 0 1 1700.95 1015)">1</text><g><text fill="#000000" fill-opacity="1" font-family="Arial,Arial_MSFontService,sans-serif" font-style="normal" font-variant="normal" font-weight="400" font-stretch="normal" font-size="73" text-anchor="start" direction="ltr" writing-mode="lr-tb" unicode-bidi="normal" text-decoration="none" transform="matrix(1 0 0 1 1121.44 1015)">User ↓ Item →</text></g><text fill="#000000" fill-opacity="1" font-family="Arial,Arial_MSFontService,sans-serif" font-style="normal" font-variant="normal" font-weight="400" font-stretch="normal" font-size="73" text-anchor="start" direction="ltr" writing-mode="lr-tb" unicode-bidi="normal" text-decoration="none" transform="matrix(1 0 0 1 2480.47 1136)">4</text><text fill="#000000" fill-opacity="1" font-family="Arial,Arial_MSFontService,sans-serif" font-style="normal" font-variant="normal" font-weight="400" font-stretch="normal" font-size="73" text-anchor="start" direction="ltr" writing-mode="lr-tb" unicode-bidi="normal" text-decoration="none" transform="matrix(1 0 0 1 2324.57 1136)">5</text><text fill="#000000" fill-opacity="1" font-family="Arial,Arial_MSFontService,sans-serif" font-style="normal" font-variant="normal" font-weight="400" font-stretch="normal" font-size="73" text-anchor="start" direction="ltr" writing-mode="lr-tb" unicode-bidi="normal" text-decoration="none" transform="matrix(1 0 0 1 2012.76 1136)">1</text><text fill="#000000" fill-opacity="1" font-family="Arial,Arial_MSFontService,sans-serif" font-style="normal" font-variant="normal" font-weight="400" font-stretch="normal" font-size="73" text-anchor="start" direction="ltr" writing-mode="lr-tb" unicode-bidi="normal" text-decoration="none" transform="matrix(1 0 0 1 1856.85 1136)">3</text><text fill="#000000" fill-opacity="1" font-family="Arial,Arial_MSFontService,sans-serif" font-style="normal" font-variant="normal" font-weight="400" font-stretch="normal" font-size="73" text-anchor="start" direction="ltr" writing-mode="lr-tb" unicode-bidi="normal" text-decoration="none" transform="matrix(1 0 0 1 1700.95 1136)">1</text><text fill="#000000" fill-opacity="1" font-family="Arial,Arial_MSFontService,sans-serif" font-style="normal" font-variant="normal" font-weight="400" font-stretch="normal" font-size="73" text-anchor="start" direction="ltr" writing-mode="lr-tb" unicode-bidi="normal" text-decoration="none" transform="matrix(1 0 0 1 2324.57 1257)">1</text><text fill="#000000" fill-opacity="1" font-family="Arial,Arial_MSFontService,sans-serif" font-style="normal" font-variant="normal" font-weight="400" font-stretch="normal" font-size="73" text-anchor="start" direction="ltr" writing-mode="lr-tb" unicode-bidi="normal" text-decoration="none" transform="matrix(1 0 0 1 2012.76 1257)">4</text><text fill="#000000" fill-opacity="1" font-family="Arial,Arial_MSFontService,sans-serif" font-style="normal" font-variant="normal" font-weight="400" font-stretch="normal" font-size="73" text-anchor="start" direction="ltr" writing-mode="lr-tb" unicode-bidi="normal" text-decoration="none" transform="matrix(1 0 0 1 1856.85 1257)">4</text><text fill="#000000" fill-opacity="1" font-family="Arial,Arial_MSFontService,sans-serif" font-style="normal" font-variant="normal" font-weight="400" font-stretch="normal" font-size="73" text-anchor="start" direction="ltr" writing-mode="lr-tb" unicode-bidi="normal" text-decoration="none" transform="matrix(1 0 0 1 1700.95 1257)">5</text><g><text fill="#000000" fill-opacity="1" font-family="Arial,Arial_MSFontService,sans-serif" font-style="normal" font-variant="normal" font-weight="400" font-stretch="normal" font-size="73" text-anchor="start" direction="ltr" writing-mode="lr-tb" unicode-bidi="normal" text-decoration="none" transform="matrix(1 0 0 1 1121.44 1378)">…</text></g><g><g><g><path d="M107.5 88.6874C107.43 85.3208 105.851 82.1637 103.2 80.0874 97.2874 75.2499 89.7624 72.0249 82.2374 69.8749 76.4885 68.115 70.5122 67.2096 64.4999 67.1874 58.4943 67.291 52.5293 68.1949 46.7625 69.8749 39.2473 72.0679 32.159 75.5212 25.8 80.0874 23.1488 82.1637 21.5701 85.3208 21.5 88.6874L21.5 110.187 107.5 110.187Z" fill="#000000" fill-rule="nonzero" fill-opacity="1" transform="matrix(1 0 0 1.00776 1253 1052)"/><path d="M87.4915 55.9C86.2552 51.0625 90.9852 38.9687 91.0256 30.4494 91.0256 23.6365 89.0906 20.5862 85.4356 18.5169 83.3259 17.3209 78.4615 18.4228 78.4615 18.4228 78.4615 18.4228 75.9487 13.6659 67.5368 11.0456 60.6247 9.16374 53.2481 10.1064 47.0312 13.6659 41.8309 17.0253 39.3181 20.7206 39.1972 33.4325 39.0897 45.0828 40.6887 55.4296 39.9497 60.3075 39.6089 63.0075 38.5819 65.5751 36.9665 67.7653 36.9665 67.7653 45.029 68.7999 49.5306 66.4215 51.7959 64.9016 53.9431 63.2126 55.9537 61.369 49.0573 58.1526 44.0299 51.9352 42.3281 44.5184 42.1534 43.8734 40.9843 39.654 42.8522 37.289 43.8734 35.9453 46.2115 35.569 50.1084 34.8837 54.7731 34.2692 59.3256 32.9886 63.6265 31.0809 68.4613 28.6497 72.9451 25.576 76.9565 21.9434 77.4853 21.4227 78.336 21.4292 78.8568 21.9579 79.0548 22.159 79.1844 22.4171 79.2274 22.6959 79.5474 24.9064 80.3156 27.028 81.4849 28.9309 82.0326 29.6326 82.7072 30.2252 83.4737 30.6778 84.3671 31.2131 85.1367 31.9322 85.7312 32.7875 86.7015 34.6812 87.2515 36.7621 87.3437 38.8881 87.2558 48.694 81.4297 57.5383 72.4549 61.4899 74.1481 62.9815 76.3653 64.8224 78.8109 66.5962 82.8421 69.5121 92.5843 65.4809 92.5843 65.4809 92.5843 65.4809 89.4399 63.5996 87.4915 55.9Z" fill="#000000" fill-rule="nonzero" fill-opacity="1" transform="matrix(1 0 0 1.00776 1253 1052)"/><path d="M84.6562 38.9687C84.5844 37.3445 84.1917 35.7506 83.5006 34.279 83.107 33.723 82.5925 33.2636 81.9956 32.9353 80.9679 32.3162 80.058 31.5202 79.3081 30.5837 78.2269 29.0271 77.4474 27.2813 77.0103 25.4372 73.2586 28.587 69.1554 31.2924 64.7821 33.4997 60.2425 35.519 55.4368 36.8766 50.5115 37.5309 48.2406 37.934 45.4053 38.4312 44.9215 38.9418 44.1153 39.99 44.5318 42.664 44.9215 43.7928 47.2193 53.4812 55.4431 60.4687 64.4999 60.4687 75.2499 60.4687 84.6562 50.4175 84.6562 38.9687Z" fill="#000000" fill-rule="nonzero" fill-opacity="1" transform="matrix(1 0 0 1.00776 1253 1052)"/></g></g></g><text fill="#FFFFFF" fill-opacity="1" font-family="Arial,Arial_MSFontService,sans-serif" font-style="normal" font-variant="normal" font-weight="700" font-stretch="normal" font-size="73" text-anchor="start" direction="ltr" writing-mode="lr-tb" unicode-bidi="normal" text-decoration="none" transform="matrix(1 0 0 1 1298.87 1145)">1</text><g><g><g><path d="M85.9999 40.3125C85.9999 52.1866 76.3741 61.8125 64.4999 61.8125 52.6258 61.8125 43 52.1866 43 40.3125 43 28.4384 52.6258 18.8125 64.4999 18.8125 76.3741 18.8125 85.9999 28.4384 85.9999 40.3125Z" fill="#000000" fill-rule="nonzero" fill-opacity="1" transform="matrix(1 0 0 1.00775 1253 1165)"/><path d="M107.5 110.187 107.5 88.6874C107.5 85.4624 105.887 82.2374 103.2 80.0874 97.2874 75.2499 89.7624 72.0249 82.2374 69.8749 76.8624 68.2624 70.9499 67.1874 64.4999 67.1874 58.5875 67.1874 52.675 68.2624 46.7625 69.8749 39.2375 72.0249 31.7125 75.7874 25.8 80.0874 23.1125 82.2374 21.5 85.4624 21.5 88.6874L21.5 110.187 107.5 110.187Z" fill="#000000" fill-rule="nonzero" fill-opacity="1" transform="matrix(1 0 0 1.00775 1253 1165)"/></g></g></g><text fill="#FFFFFF" fill-opacity="1" font-family="Arial,Arial_MSFontService,sans-serif" font-style="normal" font-variant="normal" font-weight="700" font-stretch="normal" font-size="73" text-anchor="start" direction="ltr" writing-mode="lr-tb" unicode-bidi="normal" text-decoration="none" transform="matrix(1 0 0 1 1296.82 1263)">2</text></g></g></svg>