<svg width="2819" height="912" xmlns="http://www.w3.org/2000/svg" xmlns:xlink="http://www.w3.org/1999/xlink" xml:space="preserve" overflow="hidden"><g transform="translate(-270 -614)"><g><path d="M277.07 638.328 831.966 638.328 831.966 759.328 277.07 759.328Z" fill="#C2C2C4" fill-rule="evenodd" fill-opacity="1"/><path d="M831.966 638.328 987.871 638.328 987.871 759.328 831.966 759.328Z" fill="#C2C2C4" fill-rule="evenodd" fill-opacity="1"/><path d="M987.871 638.328 1143.78 638.328 1143.78 759.328 987.871 759.328Z" fill="#C2C2C4" fill-rule="evenodd" fill-opacity="1"/><path d="M1143.78 638.328 1299.68 638.328 1299.68 759.328 1143.78 759.328Z" fill="#C2C2C4" fill-rule="evenodd" fill-opacity="1"/><path d="M1299.68 638.328 1455.59 638.328 1455.59 759.328 1299.68 759.328Z" fill="#C2C2C4" fill-rule="evenodd" fill-opacity="1"/><path d="M1455.59 638.328 1611.49 638.328 1611.49 759.328 1455.59 759.328Z" fill="#C2C2C4" fill-rule="evenodd" fill-opacity="1"/><path d="M1611.49 638.328 1767.4 638.328 1767.4 759.328 1611.49 759.328Z" fill="#C2C2C4" fill-rule="evenodd" fill-opacity="1"/><path d="M277.07 759.328 831.966 759.328 831.966 880.328 277.07 880.328Z" fill="#C2C2C4" fill-rule="evenodd" fill-opacity="1"/><path d="M277.07 880.328 831.966 880.328 831.966 1001.33 277.07 1001.33Z" fill="#C2C2C4" fill-rule="evenodd" fill-opacity="1"/><path d="M277.07 1001.33 831.966 1001.33 831.966 1122.33 277.07 1122.33Z" fill="#C2C2C4" fill-rule="evenodd" fill-opacity="1"/><path d="M277.07 1122.33 831.966 1122.33 831.966 1243.33 277.07 1243.33Z" fill="#C2C2C4" fill-rule="evenodd" fill-opacity="1"/><path d="M277.07 1243.33 831.966 1243.33 831.966 1364.33 277.07 1364.33Z" fill="#C2C2C4" fill-rule="evenodd" fill-opacity="1"/><path d="M277.07 1364.33 831.966 1364.33 831.966 1485.33 277.07 1485.33Z" fill="#C2C2C4" fill-rule="evenodd" fill-opacity="1"/><path d="M831.966 636.036 831.966 1487.62" stroke="#000000" stroke-width="4.58333" stroke-linecap="butt" stroke-linejoin="round" stroke-miterlimit="10" stroke-opacity="1" fill="none" fill-rule="evenodd"/><path d="M987.871 636.036 987.871 1487.62" stroke="#000000" stroke-width="4.58333" stroke-linecap="butt" stroke-linejoin="round" stroke-miterlimit="10" stroke-opacity="1" fill="none" fill-rule="evenodd"/><path d="M1143.78 636.036 1143.78 1487.62" stroke="#000000" stroke-width="4.58333" stroke-linecap="butt" stroke-linejoin="round" stroke-miterlimit="10" stroke-opacity="1" fill="none" fill-rule="evenodd"/><path d="M1299.68 636.036 1299.68 1487.62" stroke="#000000" stroke-width="4.58333" stroke-linecap="butt" stroke-linejoin="round" stroke-miterlimit="10" stroke-opacity="1" fill="none" fill-rule="evenodd"/><path d="M1455.59 636.036 1455.59 1487.62" stroke="#000000" stroke-width="4.58333" stroke-linecap="butt" stroke-linejoin="round" stroke-miterlimit="10" stroke-opacity="1" fill="none" fill-rule="evenodd"/><path d="M1611.49 636.036 1611.49 1487.62" stroke="#000000" stroke-width="4.58333" stroke-linecap="butt" stroke-linejoin="round" stroke-miterlimit="10" stroke-opacity="1" fill="none" fill-rule="evenodd"/><path d="M274.778 759.328 1769.69 759.328" stroke="#000000" stroke-width="4.58333" stroke-linecap="butt" stroke-linejoin="round" stroke-miterlimit="10" stroke-opacity="1" fill="none" fill-rule="evenodd"/><path d="M274.778 880.328 1769.69 880.328" stroke="#000000" stroke-width="4.58333" stroke-linecap="butt" stroke-linejoin="round" stroke-miterlimit="10" stroke-opacity="1" fill="none" fill-rule="evenodd"/><path d="M274.778 1001.33 1769.69 1001.33" stroke="#000000" stroke-width="4.58333" stroke-linecap="butt" stroke-linejoin="round" stroke-miterlimit="10" stroke-opacity="1" fill="none" fill-rule="evenodd"/><path d="M274.778 1122.33 1769.69 1122.33" stroke="#000000" stroke-width="4.58333" stroke-linecap="butt" stroke-linejoin="round" stroke-miterlimit="10" stroke-opacity="1" fill="none" fill-rule="evenodd"/><path d="M274.778 1243.33 1769.69 1243.33" stroke="#000000" stroke-width="4.58333" stroke-linecap="butt" stroke-linejoin="round" stroke-miterlimit="10" stroke-opacity="1" fill="none" fill-rule="evenodd"/><path d="M274.778 1364.33 1769.69 1364.33" stroke="#000000" stroke-width="4.58333" stroke-linecap="butt" stroke-linejoin="round" stroke-miterlimit="10" stroke-opacity="1" fill="none" fill-rule="evenodd"/><path d="M277.07 636.036 277.07 1487.62" stroke="#000000" stroke-width="4.58333" stroke-linecap="butt" stroke-linejoin="round" stroke-miterlimit="10" stroke-opacity="1" fill="none" fill-rule="evenodd"/><path d="M1767.4 636.036 1767.4 1487.62" stroke="#000000" stroke-width="4.58333" stroke-linecap="butt" stroke-linejoin="round" stroke-miterlimit="10" stroke-opacity="1" fill="none" fill-rule="evenodd"/><path d="M274.778 638.328 1769.69 638.328" stroke="#000000" stroke-width="4.58333" stroke-linecap="butt" stroke-linejoin="round" stroke-miterlimit="10" stroke-opacity="1" fill="none" fill-rule="evenodd"/><path d="M274.778 1485.33 1769.69 1485.33" stroke="#000000" stroke-width="4.58333" stroke-linecap="butt" stroke-linejoin="round" stroke-miterlimit="10" stroke-opacity="1" fill="none" fill-rule="evenodd"/><text fill="#000000" fill-opacity="1" font-family="Arial,Arial_MSFontService,sans-serif" font-style="normal" font-variant="normal" font-weight="400" font-stretch="normal" font-size="73" text-anchor="start" direction="ltr" writing-mode="lr-tb" unicode-bidi="normal" text-decoration="none" transform="matrix(1 0 0 1 1669.11 726)">6</text><text fill="#000000" fill-opacity="1" font-family="Arial,Arial_MSFontService,sans-serif" font-style="normal" font-variant="normal" font-weight="400" font-stretch="normal" font-size="73" text-anchor="start" direction="ltr" writing-mode="lr-tb" unicode-bidi="normal" text-decoration="none" transform="matrix(1 0 0 1 1513.2 726)">5</text><text fill="#000000" fill-opacity="1" font-family="Arial,Arial_MSFontService,sans-serif" font-style="normal" font-variant="normal" font-weight="400" font-stretch="normal" font-size="73" text-anchor="start" direction="ltr" writing-mode="lr-tb" unicode-bidi="normal" text-decoration="none" transform="matrix(1 0 0 1 1357.3 726)">4</text><text fill="#000000" fill-opacity="1" font-family="Arial,Arial_MSFontService,sans-serif" font-style="normal" font-variant="normal" font-weight="400" font-stretch="normal" font-size="73" text-anchor="start" direction="ltr" writing-mode="lr-tb" unicode-bidi="normal" text-decoration="none" transform="matrix(1 0 0 1 1201.39 726)">3</text><text fill="#000000" fill-opacity="1" font-family="Arial,Arial_MSFontService,sans-serif" font-style="normal" font-variant="normal" font-weight="400" font-stretch="normal" font-size="73" text-anchor="start" direction="ltr" writing-mode="lr-tb" unicode-bidi="normal" text-decoration="none" transform="matrix(1 0 0 1 1045.49 726)">2</text><text fill="#000000" fill-opacity="1" font-family="Arial,Arial_MSFontService,sans-serif" font-style="normal" font-variant="normal" font-weight="400" font-stretch="normal" font-size="73" text-anchor="start" direction="ltr" writing-mode="lr-tb" unicode-bidi="normal" text-decoration="none" transform="matrix(1 0 0 1 889.58 726)">1</text><g><text fill="#000000" fill-opacity="1" font-family="Arial,Arial_MSFontService,sans-serif" font-style="normal" font-variant="normal" font-weight="400" font-stretch="normal" font-size="73" text-anchor="start" direction="ltr" writing-mode="lr-tb" unicode-bidi="normal" text-decoration="none" transform="matrix(1 0 0 1 310.07 726)">User↓ Item→</text></g><text fill="#000000" fill-opacity="1" font-family="Arial,Arial_MSFontService,sans-serif" font-style="normal" font-variant="normal" font-weight="400" font-stretch="normal" font-size="73" text-anchor="start" direction="ltr" writing-mode="lr-tb" unicode-bidi="normal" text-decoration="none" transform="matrix(1 0 0 1 1669.11 847)">4</text><text fill="#000000" fill-opacity="1" font-family="Arial,Arial_MSFontService,sans-serif" font-style="normal" font-variant="normal" font-weight="400" font-stretch="normal" font-size="73" text-anchor="start" direction="ltr" writing-mode="lr-tb" unicode-bidi="normal" text-decoration="none" transform="matrix(1 0 0 1 1513.2 847)">5</text><text fill="#000000" fill-opacity="1" font-family="Arial,Arial_MSFontService,sans-serif" font-style="normal" font-variant="normal" font-weight="400" font-stretch="normal" font-size="73" text-anchor="start" direction="ltr" writing-mode="lr-tb" unicode-bidi="normal" text-decoration="none" transform="matrix(1 0 0 1 1201.39 847)">1</text><text fill="#000000" fill-opacity="1" font-family="Arial,Arial_MSFontService,sans-serif" font-style="normal" font-variant="normal" font-weight="400" font-stretch="normal" font-size="73" text-anchor="start" direction="ltr" writing-mode="lr-tb" unicode-bidi="normal" text-decoration="none" transform="matrix(1 0 0 1 1045.49 847)">3</text><text fill="#000000" fill-opacity="1" font-family="Arial,Arial_MSFontService,sans-serif" font-style="normal" font-variant="normal" font-weight="400" font-stretch="normal" font-size="73" text-anchor="start" direction="ltr" writing-mode="lr-tb" unicode-bidi="normal" text-decoration="none" transform="matrix(1 0 0 1 889.58 847)">1</text><text fill="#000000" fill-opacity="1" font-family="Arial,Arial_MSFontService,sans-serif" font-style="normal" font-variant="normal" font-weight="400" font-stretch="normal" font-size="73" text-anchor="start" direction="ltr" writing-mode="lr-tb" unicode-bidi="normal" text-decoration="none" transform="matrix(1 0 0 1 1513.2 968)">1</text><text fill="#000000" fill-opacity="1" font-family="Arial,Arial_MSFontService,sans-serif" font-style="normal" font-variant="normal" font-weight="400" font-stretch="normal" font-size="73" text-anchor="start" direction="ltr" writing-mode="lr-tb" unicode-bidi="normal" text-decoration="none" transform="matrix(1 0 0 1 1201.39 968)">4</text><text fill="#000000" fill-opacity="1" font-family="Arial,Arial_MSFontService,sans-serif" font-style="normal" font-variant="normal" font-weight="400" font-stretch="normal" font-size="73" text-anchor="start" direction="ltr" writing-mode="lr-tb" unicode-bidi="normal" text-decoration="none" transform="matrix(1 0 0 1 1045.49 968)">4</text><text fill="#000000" fill-opacity="1" font-family="Arial,Arial_MSFontService,sans-serif" font-style="normal" font-variant="normal" font-weight="400" font-stretch="normal" font-size="73" text-anchor="start" direction="ltr" writing-mode="lr-tb" unicode-bidi="normal" text-decoration="none" transform="matrix(1 0 0 1 889.58 968)">5</text><text fill="#000000" fill-opacity="1" font-family="Arial,Arial_MSFontService,sans-serif" font-style="normal" font-variant="normal" font-weight="400" font-stretch="normal" font-size="73" text-anchor="start" direction="ltr" writing-mode="lr-tb" unicode-bidi="normal" text-decoration="none" transform="matrix(1 0 0 1 1513.2 1089)">5</text><text fill="#000000" fill-opacity="1" font-family="Arial,Arial_MSFontService,sans-serif" font-style="normal" font-variant="normal" font-weight="400" font-stretch="normal" font-size="73" text-anchor="start" direction="ltr" writing-mode="lr-tb" unicode-bidi="normal" text-decoration="none" transform="matrix(1 0 0 1 1357.3 1089)">4</text><text fill="#000000" fill-opacity="1" font-family="Arial,Arial_MSFontService,sans-serif" font-style="normal" font-variant="normal" font-weight="400" font-stretch="normal" font-size="73" text-anchor="start" direction="ltr" writing-mode="lr-tb" unicode-bidi="normal" text-decoration="none" transform="matrix(1 0 0 1 1201.39 1089)">5</text><text fill="#000000" fill-opacity="1" font-family="Arial,Arial_MSFontService,sans-serif" font-style="normal" font-variant="normal" font-weight="400" font-stretch="normal" font-size="73" text-anchor="start" direction="ltr" writing-mode="lr-tb" unicode-bidi="normal" text-decoration="none" transform="matrix(1 0 0 1 889.58 1089)">2</text><text fill="#000000" fill-opacity="1" font-family="Arial,Arial_MSFontService,sans-serif" font-style="normal" font-variant="normal" font-weight="400" font-stretch="normal" font-size="73" text-anchor="start" direction="ltr" writing-mode="lr-tb" unicode-bidi="normal" text-decoration="none" transform="matrix(1 0 0 1 1669.11 1210)">5</text><text fill="#000000" fill-opacity="1" font-family="Arial,Arial_MSFontService,sans-serif" font-style="normal" font-variant="normal" font-weight="400" font-stretch="normal" font-size="73" text-anchor="start" direction="ltr" writing-mode="lr-tb" unicode-bidi="normal" text-decoration="none" transform="matrix(1 0 0 1 1045.49 1210)">3</text><text fill="#000000" fill-opacity="1" font-family="Arial,Arial_MSFontService,sans-serif" font-style="normal" font-variant="normal" font-weight="400" font-stretch="normal" font-size="73" text-anchor="start" direction="ltr" writing-mode="lr-tb" unicode-bidi="normal" text-decoration="none" transform="matrix(1 0 0 1 1513.2 1331)">4</text><text fill="#000000" fill-opacity="1" font-family="Arial,Arial_MSFontService,sans-serif" font-style="normal" font-variant="normal" font-weight="400" font-stretch="normal" font-size="73" text-anchor="start" direction="ltr" writing-mode="lr-tb" unicode-bidi="normal" text-decoration="none" transform="matrix(1 0 0 1 1357.3 1331)">5</text><text fill="#000000" fill-opacity="1" font-family="Arial,Arial_MSFontService,sans-serif" font-style="normal" font-variant="normal" font-weight="400" font-stretch="normal" font-size="73" text-anchor="start" direction="ltr" writing-mode="lr-tb" unicode-bidi="normal" text-decoration="none" transform="matrix(1 0 0 1 1045.49 1331)">2</text><text fill="#000000" fill-opacity="1" font-family="Arial,Arial_MSFontService,sans-serif" font-style="normal" font-variant="normal" font-weight="400" font-stretch="normal" font-size="73" text-anchor="start" direction="ltr" writing-mode="lr-tb" unicode-bidi="normal" text-decoration="none" transform="matrix(1 0 0 1 1669.11 1452)">5</text><text fill="#000000" fill-opacity="1" font-family="Arial,Arial_MSFontService,sans-serif" font-style="normal" font-variant="normal" font-weight="400" font-stretch="normal" font-size="73" text-anchor="start" direction="ltr" writing-mode="lr-tb" unicode-bidi="normal" text-decoration="none" transform="matrix(1 0 0 1 1357.3 1452)">4</text><text fill="#000000" fill-opacity="1" font-family="Arial,Arial_MSFontService,sans-serif" font-style="normal" font-variant="normal" font-weight="400" font-stretch="normal" font-size="73" text-anchor="start" direction="ltr" writing-mode="lr-tb" unicode-bidi="normal" text-decoration="none" transform="matrix(1 0 0 1 1201.39 1452)">4</text><g><g><g><path d="M549.333 852.375C549.263 848.982 547.672 845.801 545 843.708 539.042 838.833 531.458 835.583 523.875 833.417 518.081 831.643 512.059 830.731 506 830.708 499.948 830.813 493.937 831.724 488.125 833.417 480.552 835.627 473.408 839.107 467 843.708 464.328 845.801 462.737 848.982 462.667 852.375L462.667 874.042 549.333 874.042Z" fill="#000000" fill-rule="nonzero" fill-opacity="1"/><path d="M529.17 819.333C527.924 814.458 532.691 802.271 532.731 793.686 532.731 786.82 530.781 783.746 527.098 781.661 524.972 780.455 520.07 781.566 520.07 781.566 520.07 781.566 517.537 776.772 509.06 774.131 502.095 772.235 494.661 773.185 488.396 776.772 483.155 780.157 480.623 783.881 480.501 796.692 480.393 808.432 482.004 818.859 481.259 823.775 480.916 826.496 479.881 829.084 478.253 831.291 478.253 831.291 486.378 832.333 490.915 829.937 493.197 828.405 495.361 826.703 497.388 824.845 490.438 821.604 485.371 815.338 483.656 807.864 483.48 807.214 482.302 802.962 484.184 800.578 485.214 799.224 487.57 798.845 491.497 798.154 496.198 797.535 500.786 796.245 505.12 794.322 509.992 791.872 514.511 788.774 518.553 785.114 519.086 784.589 519.943 784.595 520.468 785.128 520.668 785.331 520.798 785.591 520.842 785.872 521.164 788.1 521.938 790.238 523.117 792.155 523.669 792.862 524.348 793.46 525.121 793.916 526.021 794.455 526.797 795.18 527.396 796.042 528.374 797.95 528.928 800.047 529.021 802.19 528.932 812.072 523.061 820.984 514.017 824.967 515.723 826.47 517.957 828.325 520.422 830.113 524.484 833.051 534.302 828.989 534.302 828.989 534.302 828.989 531.133 827.093 529.17 819.333Z" fill="#000000" fill-rule="nonzero" fill-opacity="1"/><path d="M526.312 802.271C526.24 800.634 525.844 799.028 525.148 797.545 524.751 796.985 524.233 796.522 523.631 796.191 522.596 795.567 521.679 794.765 520.923 793.821 519.833 792.252 519.048 790.493 518.607 788.634 514.827 791.809 510.691 794.535 506.284 796.759 501.71 798.794 496.867 800.163 491.903 800.822 489.615 801.228 486.757 801.729 486.27 802.244 485.457 803.3 485.877 805.995 486.27 807.132 488.585 816.896 496.873 823.938 506 823.938 516.833 823.938 526.312 813.808 526.312 802.271Z" fill="#000000" fill-rule="nonzero" fill-opacity="1"/></g></g></g><text fill="#FFFFFF" fill-opacity="1" font-family="Arial,Arial_MSFontService,sans-serif" font-style="normal" font-variant="normal" font-weight="700" font-stretch="normal" font-size="73" text-anchor="start" direction="ltr" writing-mode="lr-tb" unicode-bidi="normal" text-decoration="none" transform="matrix(1 0 0 1 487.5 856)">1</text><g><g><g><path d="M516.667 1164.63C516.667 1176.59 506.966 1186.29 495 1186.29 483.034 1186.29 473.333 1176.59 473.333 1164.63 473.333 1152.66 483.034 1142.96 495 1142.96 506.966 1142.96 516.667 1152.66 516.667 1164.63Z" fill="#000000" fill-rule="nonzero" fill-opacity="1"/><path d="M538.333 1235.04 538.333 1213.38C538.333 1210.13 536.708 1206.88 534 1204.71 528.042 1199.83 520.458 1196.58 512.875 1194.42 507.458 1192.79 501.5 1191.71 495 1191.71 489.042 1191.71 483.083 1192.79 477.125 1194.42 469.542 1196.58 461.958 1200.38 456 1204.71 453.292 1206.88 451.667 1210.13 451.667 1213.38L451.667 1235.04 538.333 1235.04Z" fill="#000000" fill-rule="nonzero" fill-opacity="1"/></g></g></g><text fill="#FFFFFF" fill-opacity="1" font-family="Arial,Arial_MSFontService,sans-serif" font-style="normal" font-variant="normal" font-weight="700" font-stretch="normal" font-size="73" text-anchor="start" direction="ltr" writing-mode="lr-tb" unicode-bidi="normal" text-decoration="none" transform="matrix(1 0 0 1 475.192 1220)">4</text><g><g><g><path d="M108.333 89.375C108.263 85.9822 106.672 82.8006 104 80.7083 98.0416 75.8333 90.4583 72.5833 82.875 70.4166 77.0814 68.6431 71.0588 67.7306 65 67.7083 58.9478 67.8127 52.9365 68.7235 47.125 70.4166 39.5515 72.6266 32.4083 76.1067 26 80.7083 23.3282 82.8006 21.7373 85.9822 21.6667 89.375L21.6667 111.042 108.333 111.042Z" fill="#000000" fill-rule="nonzero" fill-opacity="1" transform="matrix(1 0 0 1 435 1246)"/><path d="M88.1698 56.3333C86.9239 51.4583 91.6906 39.2708 91.7312 30.6854 91.7312 23.8198 89.7812 20.7458 86.0979 18.6604 83.9718 17.4552 79.0698 18.5656 79.0698 18.5656 79.0698 18.5656 76.5375 13.7719 68.0604 11.1312 61.0947 9.23478 53.6609 10.1847 47.3958 13.7719 42.1552 17.1573 39.6229 20.8812 39.501 33.6917 39.3927 45.4323 41.0041 55.8593 40.2594 60.775 39.9159 63.4959 38.881 66.0834 37.2531 68.2906 37.2531 68.2906 45.3781 69.3333 49.9146 66.9364 52.1974 65.4047 54.3612 63.7027 56.3875 61.8448 49.4376 58.6034 44.3713 52.3378 42.6562 44.8635 42.4802 44.2135 41.3021 39.9614 43.1844 37.5781 44.2135 36.2239 46.5698 35.8448 50.4969 35.1541 55.1977 34.5349 59.7855 33.2444 64.1198 31.3219 68.9921 28.8718 73.5106 25.7742 77.5531 22.1135 78.086 21.5888 78.9433 21.5953 79.4681 22.1282 79.6676 22.3307 79.7983 22.5909 79.8416 22.8719 80.1641 25.0995 80.9382 27.2376 82.1166 29.1552 82.6686 29.8623 83.3484 30.4595 84.1208 30.9156 85.0212 31.4551 85.7967 32.1797 86.3958 33.0416 87.3736 34.9501 87.9279 37.0471 88.0208 39.1896 87.9322 49.0715 82.061 57.9843 73.0166 61.9666 74.7229 63.4698 76.9573 65.325 79.4218 67.1125 83.4843 70.051 93.302 65.9885 93.302 65.9885 93.302 65.9885 90.1333 64.0927 88.1698 56.3333Z" fill="#000000" fill-rule="nonzero" fill-opacity="1" transform="matrix(1 0 0 1 435 1246)"/><path d="M85.3125 39.2708C85.2402 37.634 84.8443 36.0277 84.1479 34.5448 83.7512 33.9844 83.2327 33.5214 82.6312 33.1906 81.5955 32.5667 80.6786 31.7645 79.9229 30.8208 78.8333 29.2522 78.0478 27.4928 77.6073 25.6344 73.8266 28.8087 69.6915 31.535 65.2843 33.7594 60.7096 35.7944 55.8665 37.1625 50.9031 37.8219 48.6146 38.2281 45.7573 38.7291 45.2698 39.2437 44.4573 40.3 44.8771 42.9948 45.2698 44.1323 47.5854 53.8958 55.8729 60.9375 65 60.9375 75.8333 60.9375 85.3125 50.8083 85.3125 39.2708Z" fill="#000000" fill-rule="nonzero" fill-opacity="1" transform="matrix(1 0 0 1 435 1246)"/></g></g></g><text fill="#FFFFFF" fill-opacity="1" font-family="Arial,Arial_MSFontService,sans-serif" font-style="normal" font-variant="normal" font-weight="700" font-stretch="normal" font-size="73" text-anchor="start" direction="ltr" writing-mode="lr-tb" unicode-bidi="normal" text-decoration="none" transform="matrix(1 0 0 1 482.628 1345)">5</text><g><g><g><path d="M549.333 1092.38C549.263 1088.98 547.672 1085.8 545 1083.71 539.042 1078.83 531.458 1075.58 523.875 1073.42 518.081 1071.64 512.059 1070.73 506 1070.71 499.948 1070.81 493.937 1071.72 488.125 1073.42 480.552 1075.63 473.408 1079.11 467 1083.71 464.328 1085.8 462.737 1088.98 462.667 1092.38L462.667 1114.04 549.333 1114.04Z" fill="#000000" fill-rule="nonzero" fill-opacity="1"/><path d="M529.17 1059.33C527.924 1054.46 532.691 1042.27 532.731 1033.69 532.731 1026.82 530.781 1023.75 527.098 1021.66 524.972 1020.46 520.07 1021.57 520.07 1021.57 520.07 1021.57 517.537 1016.77 509.06 1014.13 502.095 1012.23 494.661 1013.18 488.396 1016.77 483.155 1020.16 480.623 1023.88 480.501 1036.69 480.393 1048.43 482.004 1058.86 481.259 1063.78 480.916 1066.5 479.881 1069.08 478.253 1071.29 478.253 1071.29 486.378 1072.33 490.915 1069.94 493.197 1068.4 495.361 1066.7 497.388 1064.84 490.438 1061.6 485.371 1055.34 483.656 1047.86 483.48 1047.21 482.302 1042.96 484.184 1040.58 485.214 1039.22 487.57 1038.84 491.497 1038.15 496.198 1037.53 500.786 1036.24 505.12 1034.32 509.992 1031.87 514.511 1028.77 518.553 1025.11 519.086 1024.59 519.943 1024.6 520.468 1025.13 520.668 1025.33 520.798 1025.59 520.842 1025.87 521.164 1028.1 521.938 1030.24 523.117 1032.16 523.669 1032.86 524.348 1033.46 525.121 1033.92 526.021 1034.46 526.797 1035.18 527.396 1036.04 528.374 1037.95 528.928 1040.05 529.021 1042.19 528.932 1052.07 523.061 1060.98 514.017 1064.97 515.723 1066.47 517.957 1068.33 520.422 1070.11 524.484 1073.05 534.302 1068.99 534.302 1068.99 534.302 1068.99 531.133 1067.09 529.17 1059.33Z" fill="#000000" fill-rule="nonzero" fill-opacity="1"/><path d="M526.312 1042.27C526.24 1040.63 525.844 1039.03 525.148 1037.54 524.751 1036.98 524.233 1036.52 523.631 1036.19 522.596 1035.57 521.679 1034.76 520.923 1033.82 519.833 1032.25 519.048 1030.49 518.607 1028.63 514.827 1031.81 510.691 1034.54 506.284 1036.76 501.71 1038.79 496.867 1040.16 491.903 1040.82 489.615 1041.23 486.757 1041.73 486.27 1042.24 485.457 1043.3 485.877 1045.99 486.27 1047.13 488.585 1056.9 496.873 1063.94 506 1063.94 516.833 1063.94 526.312 1053.81 526.312 1042.27Z" fill="#000000" fill-rule="nonzero" fill-opacity="1"/></g></g></g><text fill="#FFFFFF" fill-opacity="1" font-family="Arial,Arial_MSFontService,sans-serif" font-style="normal" font-variant="normal" font-weight="700" font-stretch="normal" font-size="73" text-anchor="start" direction="ltr" writing-mode="lr-tb" unicode-bidi="normal" text-decoration="none" transform="matrix(1 0 0 1 487.5 1104)">3</text><g><g><g><path d="M86.6666 40.625C86.6666 52.5911 76.9661 62.2916 65 62.2916 53.0338 62.2916 43.3333 52.5911 43.3333 40.625 43.3333 28.6588 53.0338 18.9583 65 18.9583 76.9661 18.9583 86.6666 28.6588 86.6666 40.625Z" fill="#000000" fill-rule="nonzero" fill-opacity="1" transform="matrix(1 0 0 1 441 876)"/><path d="M108.333 111.042 108.333 89.375C108.333 86.125 106.708 82.875 104 80.7083 98.0416 75.8333 90.4583 72.5833 82.875 70.4166 77.4583 68.7916 71.5 67.7083 65 67.7083 59.0416 67.7083 53.0833 68.7916 47.125 70.4166 39.5416 72.5833 31.9583 76.375 26 80.7083 23.2917 82.875 21.6667 86.125 21.6667 89.375L21.6667 111.042 108.333 111.042Z" fill="#000000" fill-rule="nonzero" fill-opacity="1" transform="matrix(1 0 0 1 441 876)"/></g></g></g><text fill="#FFFFFF" fill-opacity="1" font-family="Arial,Arial_MSFontService,sans-serif" font-style="normal" font-variant="normal" font-weight="700" font-stretch="normal" font-size="73" text-anchor="start" direction="ltr" writing-mode="lr-tb" unicode-bidi="normal" text-decoration="none" transform="matrix(1 0 0 1 485.45 974)">2</text><g><g><g><path d="M86.6666 40.625C86.6666 52.5911 76.9661 62.2916 65 62.2916 53.0338 62.2916 43.3333 52.5911 43.3333 40.625 43.3333 28.6588 53.0338 18.9583 65 18.9583 76.9661 18.9583 86.6666 28.6588 86.6666 40.625Z" fill="#000000" fill-rule="nonzero" fill-opacity="1" transform="matrix(1 0 0 1 435 1361)"/><path d="M108.333 111.042 108.333 89.375C108.333 86.125 106.708 82.875 104 80.7083 98.0416 75.8333 90.4583 72.5833 82.875 70.4166 77.4583 68.7916 71.5 67.7083 65 67.7083 59.0416 67.7083 53.0833 68.7916 47.125 70.4166 39.5416 72.5833 31.9583 76.375 26 80.7083 23.2917 82.875 21.6667 86.125 21.6667 89.375L21.6667 111.042 108.333 111.042Z" fill="#000000" fill-rule="nonzero" fill-opacity="1" transform="matrix(1 0 0 1 435 1361)"/></g></g></g><text fill="#FFFFFF" fill-opacity="1" font-family="Arial,Arial_MSFontService,sans-serif" font-style="normal" font-variant="normal" font-weight="700" font-stretch="normal" font-size="73" text-anchor="start" direction="ltr" writing-mode="lr-tb" unicode-bidi="normal" text-decoration="none" transform="matrix(1 0 0 1 478.285 1463)">6</text><path d="M1898.58 874.417 2276.63 874.417 2276.63 942.709 1898.58 942.709Z" fill="#C2C2C4" fill-rule="evenodd" fill-opacity="1"/><path d="M2276.63 874.417 2406.55 874.417 2406.55 942.709 2276.63 942.709Z" fill="#C2C2C4" fill-rule="evenodd" fill-opacity="1"/><path d="M2406.55 874.417 2536.47 874.417 2536.47 942.709 2406.55 942.709Z" fill="#C2C2C4" fill-rule="evenodd" fill-opacity="1"/><path d="M2536.47 874.417 2666.4 874.417 2666.4 942.709 2536.47 942.709Z" fill="#C2C2C4" fill-rule="evenodd" fill-opacity="1"/><path d="M2666.4 874.417 2796.32 874.417 2796.32 942.709 2666.4 942.709Z" fill="#C2C2C4" fill-rule="evenodd" fill-opacity="1"/><path d="M2796.32 874.417 2926.24 874.417 2926.24 942.709 2796.32 942.709Z" fill="#C2C2C4" fill-rule="evenodd" fill-opacity="1"/><path d="M2926.24 874.417 3056.16 874.417 3056.16 942.709 2926.24 942.709Z" fill="#C2C2C4" fill-rule="evenodd" fill-opacity="1"/><path d="M1898.58 942.709 2276.63 942.709 2276.63 1011 1898.58 1011Z" fill="#C2C2C4" fill-rule="evenodd" fill-opacity="1"/><path d="M1898.58 1011 2276.63 1011 2276.63 1079.29 1898.58 1079.29Z" fill="#C2C2C4" fill-rule="evenodd" fill-opacity="1"/><path d="M1898.58 1079.29 2276.63 1079.29 2276.63 1147.58 1898.58 1147.58Z" fill="#C2C2C4" fill-rule="evenodd" fill-opacity="1"/><path d="M1898.58 1147.58 2276.63 1147.58 2276.63 1215.88 1898.58 1215.88Z" fill="#C2C2C4" fill-rule="evenodd" fill-opacity="1"/><path d="M1898.58 1215.88 2276.63 1215.88 2276.63 1284.17 1898.58 1284.17Z" fill="#C2C2C4" fill-rule="evenodd" fill-opacity="1"/><path d="M1898.58 1284.17 2276.63 1284.17 2276.63 1352.46 1898.58 1352.46Z" fill="#C2C2C4" fill-rule="evenodd" fill-opacity="1"/><path d="M2276.63 872.126 2276.63 1354.75" stroke="#000000" stroke-width="4.58333" stroke-linecap="butt" stroke-linejoin="round" stroke-miterlimit="10" stroke-opacity="1" fill="none" fill-rule="evenodd"/><path d="M2406.55 872.126 2406.55 1354.75" stroke="#000000" stroke-width="4.58333" stroke-linecap="butt" stroke-linejoin="round" stroke-miterlimit="10" stroke-opacity="1" fill="none" fill-rule="evenodd"/><path d="M2536.47 872.126 2536.47 1354.75" stroke="#000000" stroke-width="4.58333" stroke-linecap="butt" stroke-linejoin="round" stroke-miterlimit="10" stroke-opacity="1" fill="none" fill-rule="evenodd"/><path d="M2666.4 872.126 2666.4 1354.75" stroke="#000000" stroke-width="4.58333" stroke-linecap="butt" stroke-linejoin="round" stroke-miterlimit="10" stroke-opacity="1" fill="none" fill-rule="evenodd"/><path d="M2796.32 872.126 2796.32 1354.75" stroke="#000000" stroke-width="4.58333" stroke-linecap="butt" stroke-linejoin="round" stroke-miterlimit="10" stroke-opacity="1" fill="none" fill-rule="evenodd"/><path d="M2926.24 872.126 2926.24 1354.75" stroke="#000000" stroke-width="4.58333" stroke-linecap="butt" stroke-linejoin="round" stroke-miterlimit="10" stroke-opacity="1" fill="none" fill-rule="evenodd"/><path d="M1896.28 942.709 3058.45 942.709" stroke="#000000" stroke-width="4.58333" stroke-linecap="butt" stroke-linejoin="round" stroke-miterlimit="10" stroke-opacity="1" fill="none" fill-rule="evenodd"/><path d="M1896.28 1011 3058.45 1011" stroke="#000000" stroke-width="4.58333" stroke-linecap="butt" stroke-linejoin="round" stroke-miterlimit="10" stroke-opacity="1" fill="none" fill-rule="evenodd"/><path d="M1896.28 1079.29 3058.45 1079.29" stroke="#000000" stroke-width="4.58333" stroke-linecap="butt" stroke-linejoin="round" stroke-miterlimit="10" stroke-opacity="1" fill="none" fill-rule="evenodd"/><path d="M1896.28 1147.58 3058.45 1147.58" stroke="#000000" stroke-width="4.58333" stroke-linecap="butt" stroke-linejoin="round" stroke-miterlimit="10" stroke-opacity="1" fill="none" fill-rule="evenodd"/><path d="M1896.28 1215.88 3058.45 1215.88" stroke="#000000" stroke-width="4.58333" stroke-linecap="butt" stroke-linejoin="round" stroke-miterlimit="10" stroke-opacity="1" fill="none" fill-rule="evenodd"/><path d="M1896.28 1284.17 3058.45 1284.17" stroke="#000000" stroke-width="4.58333" stroke-linecap="butt" stroke-linejoin="round" stroke-miterlimit="10" stroke-opacity="1" fill="none" fill-rule="evenodd"/><path d="M1898.58 872.126 1898.58 1354.75" stroke="#000000" stroke-width="4.58333" stroke-linecap="butt" stroke-linejoin="round" stroke-miterlimit="10" stroke-opacity="1" fill="none" fill-rule="evenodd"/><path d="M3056.16 872.126 3056.16 1354.75" stroke="#000000" stroke-width="4.58333" stroke-linecap="butt" stroke-linejoin="round" stroke-miterlimit="10" stroke-opacity="1" fill="none" fill-rule="evenodd"/><path d="M1896.28 874.417 3058.45 874.417" stroke="#000000" stroke-width="4.58333" stroke-linecap="butt" stroke-linejoin="round" stroke-miterlimit="10" stroke-opacity="1" fill="none" fill-rule="evenodd"/><path d="M1896.28 1352.46 3058.45 1352.46" stroke="#000000" stroke-width="4.58333" stroke-linecap="butt" stroke-linejoin="round" stroke-miterlimit="10" stroke-opacity="1" fill="none" fill-rule="evenodd"/><text fill="#FFFFFF" fill-opacity="1" font-family="Arial,Arial_MSFontService,sans-serif" font-style="normal" font-variant="normal" font-weight="700" font-stretch="normal" font-size="55" text-anchor="start" direction="ltr" writing-mode="lr-tb" unicode-bidi="normal" text-decoration="none" transform="matrix(1 0 0 1 2976.02 931)">6</text><text fill="#FFFFFF" fill-opacity="1" font-family="Arial,Arial_MSFontService,sans-serif" font-style="normal" font-variant="normal" font-weight="700" font-stretch="normal" font-size="55" text-anchor="start" direction="ltr" writing-mode="lr-tb" unicode-bidi="normal" text-decoration="none" transform="matrix(1 0 0 1 2846.09 931)">5</text><text fill="#FFFFFF" fill-opacity="1" font-family="Arial,Arial_MSFontService,sans-serif" font-style="normal" font-variant="normal" font-weight="700" font-stretch="normal" font-size="55" text-anchor="start" direction="ltr" writing-mode="lr-tb" unicode-bidi="normal" text-decoration="none" transform="matrix(1 0 0 1 2716.17 931)">4</text><text fill="#FFFFFF" fill-opacity="1" font-family="Arial,Arial_MSFontService,sans-serif" font-style="normal" font-variant="normal" font-weight="700" font-stretch="normal" font-size="55" text-anchor="start" direction="ltr" writing-mode="lr-tb" unicode-bidi="normal" text-decoration="none" transform="matrix(1 0 0 1 2586.25 931)">3</text><text fill="#FFFFFF" fill-opacity="1" font-family="Arial,Arial_MSFontService,sans-serif" font-style="normal" font-variant="normal" font-weight="700" font-stretch="normal" font-size="55" text-anchor="start" direction="ltr" writing-mode="lr-tb" unicode-bidi="normal" text-decoration="none" transform="matrix(1 0 0 1 2456.33 931)">2</text><text fill="#FFFFFF" fill-opacity="1" font-family="Arial,Arial_MSFontService,sans-serif" font-style="normal" font-variant="normal" font-weight="700" font-stretch="normal" font-size="55" text-anchor="start" direction="ltr" writing-mode="lr-tb" unicode-bidi="normal" text-decoration="none" transform="matrix(1 0 0 1 2326.41 931)">1</text><g><text fill="#FFFFFF" fill-opacity="1" font-family="Arial,Arial_MSFontService,sans-serif" font-style="normal" font-variant="normal" font-weight="700" font-stretch="normal" font-size="55" text-anchor="start" direction="ltr" writing-mode="lr-tb" unicode-bidi="normal" text-decoration="none" transform="matrix(1 0 0 1 1900.87 930)">User↓ User→</text></g><g><text fill="#000000" fill-opacity="1" font-family="Arial,Arial_MSFontService,sans-serif" font-style="normal" font-variant="normal" font-weight="400" font-stretch="normal" font-size="55" text-anchor="start" direction="ltr" writing-mode="lr-tb" unicode-bidi="normal" text-decoration="none" transform="matrix(1 0 0 1 2937.92 999)">0.91</text></g><g><text fill="#000000" fill-opacity="1" font-family="Arial,Arial_MSFontService,sans-serif" font-style="normal" font-variant="normal" font-weight="400" font-stretch="normal" font-size="55" text-anchor="start" direction="ltr" writing-mode="lr-tb" unicode-bidi="normal" text-decoration="none" transform="matrix(1 0 0 1 2808 999)">1.00</text></g><g><text fill="#000000" fill-opacity="1" font-family="Arial,Arial_MSFontService,sans-serif" font-style="normal" font-variant="normal" font-weight="400" font-stretch="normal" font-size="55" text-anchor="start" direction="ltr" writing-mode="lr-tb" unicode-bidi="normal" text-decoration="none" transform="matrix(1 0 0 1 2678.07 999)">0.99</text></g><g><text fill="#000000" fill-opacity="1" font-family="Arial,Arial_MSFontService,sans-serif" font-style="normal" font-variant="normal" font-weight="400" font-stretch="normal" font-size="55" text-anchor="start" direction="ltr" writing-mode="lr-tb" unicode-bidi="normal" text-decoration="none" transform="matrix(1 0 0 1 2548.15 999)">0.84</text></g><g><text fill="#000000" fill-opacity="1" font-family="Arial,Arial_MSFontService,sans-serif" font-style="normal" font-variant="normal" font-weight="400" font-stretch="normal" font-size="55" text-anchor="start" direction="ltr" writing-mode="lr-tb" unicode-bidi="normal" text-decoration="none" transform="matrix(1 0 0 1 2418.23 999)">0.57</text></g><g><text fill="#000000" fill-opacity="1" font-family="Arial,Arial_MSFontService,sans-serif" font-style="normal" font-variant="normal" font-weight="400" font-stretch="normal" font-size="55" text-anchor="start" direction="ltr" writing-mode="lr-tb" unicode-bidi="normal" text-decoration="none" transform="matrix(1 0 0 1 2288.31 999)">1.00</text></g><text fill="#FFFFFF" fill-opacity="1" font-family="Arial,Arial_MSFontService,sans-serif" font-style="normal" font-variant="normal" font-weight="700" font-stretch="normal" font-size="55" text-anchor="start" direction="ltr" writing-mode="lr-tb" unicode-bidi="normal" text-decoration="none" transform="matrix(1 0 0 1 2072.42 999)">1</text><g><text fill="#000000" fill-opacity="1" font-family="Arial,Arial_MSFontService,sans-serif" font-style="normal" font-variant="normal" font-weight="400" font-stretch="normal" font-size="55" text-anchor="start" direction="ltr" writing-mode="lr-tb" unicode-bidi="normal" text-decoration="none" transform="matrix(1 0 0 1 2937.92 1067)">1.00</text></g><g><text fill="#000000" fill-opacity="1" font-family="Arial,Arial_MSFontService,sans-serif" font-style="normal" font-variant="normal" font-weight="400" font-stretch="normal" font-size="55" text-anchor="start" direction="ltr" writing-mode="lr-tb" unicode-bidi="normal" text-decoration="none" transform="matrix(1 0 0 1 2808 1067)">0.65</text></g><g><text fill="#000000" fill-opacity="1" font-family="Arial,Arial_MSFontService,sans-serif" font-style="normal" font-variant="normal" font-weight="400" font-stretch="normal" font-size="55" text-anchor="start" direction="ltr" writing-mode="lr-tb" unicode-bidi="normal" text-decoration="none" transform="matrix(1 0 0 1 2678.07 1067)">1.00</text></g><g><text fill="#000000" fill-opacity="1" font-family="Arial,Arial_MSFontService,sans-serif" font-style="normal" font-variant="normal" font-weight="400" font-stretch="normal" font-size="55" text-anchor="start" direction="ltr" writing-mode="lr-tb" unicode-bidi="normal" text-decoration="none" transform="matrix(1 0 0 1 2548.15 1067)">0.73</text></g><g><text fill="#000000" fill-opacity="1" font-family="Arial,Arial_MSFontService,sans-serif" font-style="normal" font-variant="normal" font-weight="400" font-stretch="normal" font-size="55" text-anchor="start" direction="ltr" writing-mode="lr-tb" unicode-bidi="normal" text-decoration="none" transform="matrix(1 0 0 1 2418.23 1067)">1.00</text></g><g><text fill="#000000" fill-opacity="1" font-family="Arial,Arial_MSFontService,sans-serif" font-style="normal" font-variant="normal" font-weight="400" font-stretch="normal" font-size="55" text-anchor="start" direction="ltr" writing-mode="lr-tb" unicode-bidi="normal" text-decoration="none" transform="matrix(1 0 0 1 2288.31 1067)">0.57</text></g><text fill="#FFFFFF" fill-opacity="1" font-family="Arial,Arial_MSFontService,sans-serif" font-style="normal" font-variant="normal" font-weight="700" font-stretch="normal" font-size="55" text-anchor="start" direction="ltr" writing-mode="lr-tb" unicode-bidi="normal" text-decoration="none" transform="matrix(1 0 0 1 2072.42 1067)">2</text><g><text fill="#000000" fill-opacity="1" font-family="Arial,Arial_MSFontService,sans-serif" font-style="normal" font-variant="normal" font-weight="400" font-stretch="normal" font-size="55" text-anchor="start" direction="ltr" writing-mode="lr-tb" unicode-bidi="normal" text-decoration="none" transform="matrix(1 0 0 1 2937.92 1136)">0.99</text></g><g><text fill="#000000" fill-opacity="1" font-family="Arial,Arial_MSFontService,sans-serif" font-style="normal" font-variant="normal" font-weight="400" font-stretch="normal" font-size="55" text-anchor="start" direction="ltr" writing-mode="lr-tb" unicode-bidi="normal" text-decoration="none" transform="matrix(1 0 0 1 2808 1136)">0.98</text></g><g><text fill="#000000" fill-opacity="1" font-family="Arial,Arial_MSFontService,sans-serif" font-style="normal" font-variant="normal" font-weight="400" font-stretch="normal" font-size="55" text-anchor="start" direction="ltr" writing-mode="lr-tb" unicode-bidi="normal" text-decoration="none" transform="matrix(1 0 0 1 2678.07 1136)">0.00</text></g><g><text fill="#000000" fill-opacity="1" font-family="Arial,Arial_MSFontService,sans-serif" font-style="normal" font-variant="normal" font-weight="400" font-stretch="normal" font-size="55" text-anchor="start" direction="ltr" writing-mode="lr-tb" unicode-bidi="normal" text-decoration="none" transform="matrix(1 0 0 1 2548.15 1136)">1.00</text></g><g><text fill="#000000" fill-opacity="1" font-family="Arial,Arial_MSFontService,sans-serif" font-style="normal" font-variant="normal" font-weight="400" font-stretch="normal" font-size="55" text-anchor="start" direction="ltr" writing-mode="lr-tb" unicode-bidi="normal" text-decoration="none" transform="matrix(1 0 0 1 2418.23 1136)">0.73</text></g><g><text fill="#000000" fill-opacity="1" font-family="Arial,Arial_MSFontService,sans-serif" font-style="normal" font-variant="normal" font-weight="400" font-stretch="normal" font-size="55" text-anchor="start" direction="ltr" writing-mode="lr-tb" unicode-bidi="normal" text-decoration="none" transform="matrix(1 0 0 1 2288.31 1136)">0.84</text></g><text fill="#FFFFFF" fill-opacity="1" font-family="Arial,Arial_MSFontService,sans-serif" font-style="normal" font-variant="normal" font-weight="700" font-stretch="normal" font-size="55" text-anchor="start" direction="ltr" writing-mode="lr-tb" unicode-bidi="normal" text-decoration="none" transform="matrix(1 0 0 1 2072.42 1136)">3</text><g><text fill="#000000" fill-opacity="1" font-family="Arial,Arial_MSFontService,sans-serif" font-style="normal" font-variant="normal" font-weight="400" font-stretch="normal" font-size="55" text-anchor="start" direction="ltr" writing-mode="lr-tb" unicode-bidi="normal" text-decoration="none" transform="matrix(1 0 0 1 2937.92 1204)">1.00</text></g><g><text fill="#000000" fill-opacity="1" font-family="Arial,Arial_MSFontService,sans-serif" font-style="normal" font-variant="normal" font-weight="400" font-stretch="normal" font-size="55" text-anchor="start" direction="ltr" writing-mode="lr-tb" unicode-bidi="normal" text-decoration="none" transform="matrix(1 0 0 1 2808 1204)">1.00</text></g><g><text fill="#000000" fill-opacity="1" font-family="Arial,Arial_MSFontService,sans-serif" font-style="normal" font-variant="normal" font-weight="400" font-stretch="normal" font-size="55" text-anchor="start" direction="ltr" writing-mode="lr-tb" unicode-bidi="normal" text-decoration="none" transform="matrix(1 0 0 1 2678.07 1204)">1.00</text></g><g><text fill="#000000" fill-opacity="1" font-family="Arial,Arial_MSFontService,sans-serif" font-style="normal" font-variant="normal" font-weight="400" font-stretch="normal" font-size="55" text-anchor="start" direction="ltr" writing-mode="lr-tb" unicode-bidi="normal" text-decoration="none" transform="matrix(1 0 0 1 2548.15 1204)">0.00</text></g><g><text fill="#000000" fill-opacity="1" font-family="Arial,Arial_MSFontService,sans-serif" font-style="normal" font-variant="normal" font-weight="400" font-stretch="normal" font-size="55" text-anchor="start" direction="ltr" writing-mode="lr-tb" unicode-bidi="normal" text-decoration="none" transform="matrix(1 0 0 1 2418.23 1204)">1.00</text></g><g><text fill="#000000" fill-opacity="1" font-family="Arial,Arial_MSFontService,sans-serif" font-style="normal" font-variant="normal" font-weight="400" font-stretch="normal" font-size="55" text-anchor="start" direction="ltr" writing-mode="lr-tb" unicode-bidi="normal" text-decoration="none" transform="matrix(1 0 0 1 2288.31 1204)">0.99</text></g><text fill="#FFFFFF" fill-opacity="1" font-family="Arial,Arial_MSFontService,sans-serif" font-style="normal" font-variant="normal" font-weight="700" font-stretch="normal" font-size="55" text-anchor="start" direction="ltr" writing-mode="lr-tb" unicode-bidi="normal" text-decoration="none" transform="matrix(1 0 0 1 2072.42 1204)">4</text><g><text fill="#000000" fill-opacity="1" font-family="Arial,Arial_MSFontService,sans-serif" font-style="normal" font-variant="normal" font-weight="400" font-stretch="normal" font-size="55" text-anchor="start" direction="ltr" writing-mode="lr-tb" unicode-bidi="normal" text-decoration="none" transform="matrix(1 0 0 1 2937.92 1272)">1.00</text></g><g><text fill="#000000" fill-opacity="1" font-family="Arial,Arial_MSFontService,sans-serif" font-style="normal" font-variant="normal" font-weight="400" font-stretch="normal" font-size="55" text-anchor="start" direction="ltr" writing-mode="lr-tb" unicode-bidi="normal" text-decoration="none" transform="matrix(1 0 0 1 2808 1272)">1.00</text></g><g><text fill="#000000" fill-opacity="1" font-family="Arial,Arial_MSFontService,sans-serif" font-style="normal" font-variant="normal" font-weight="400" font-stretch="normal" font-size="55" text-anchor="start" direction="ltr" writing-mode="lr-tb" unicode-bidi="normal" text-decoration="none" transform="matrix(1 0 0 1 2678.07 1272)">1.00</text></g><g><text fill="#000000" fill-opacity="1" font-family="Arial,Arial_MSFontService,sans-serif" font-style="normal" font-variant="normal" font-weight="400" font-stretch="normal" font-size="55" text-anchor="start" direction="ltr" writing-mode="lr-tb" unicode-bidi="normal" text-decoration="none" transform="matrix(1 0 0 1 2548.15 1272)">0.98</text></g><g><text fill="#000000" fill-opacity="1" font-family="Arial,Arial_MSFontService,sans-serif" font-style="normal" font-variant="normal" font-weight="400" font-stretch="normal" font-size="55" text-anchor="start" direction="ltr" writing-mode="lr-tb" unicode-bidi="normal" text-decoration="none" transform="matrix(1 0 0 1 2418.23 1272)">0.65</text></g><g><text fill="#000000" fill-opacity="1" font-family="Arial,Arial_MSFontService,sans-serif" font-style="normal" font-variant="normal" font-weight="400" font-stretch="normal" font-size="55" text-anchor="start" direction="ltr" writing-mode="lr-tb" unicode-bidi="normal" text-decoration="none" transform="matrix(1 0 0 1 2288.31 1272)">1.00</text></g><text fill="#FFFFFF" fill-opacity="1" font-family="Arial,Arial_MSFontService,sans-serif" font-style="normal" font-variant="normal" font-weight="700" font-stretch="normal" font-size="55" text-anchor="start" direction="ltr" writing-mode="lr-tb" unicode-bidi="normal" text-decoration="none" transform="matrix(1 0 0 1 2072.42 1272)">5</text><g><text fill="#000000" fill-opacity="1" font-family="Arial,Arial_MSFontService,sans-serif" font-style="normal" font-variant="normal" font-weight="400" font-stretch="normal" font-size="55" text-anchor="start" direction="ltr" writing-mode="lr-tb" unicode-bidi="normal" text-decoration="none" transform="matrix(1 0 0 1 2937.92 1340)">1.00</text></g><g><text fill="#000000" fill-opacity="1" font-family="Arial,Arial_MSFontService,sans-serif" font-style="normal" font-variant="normal" font-weight="400" font-stretch="normal" font-size="55" text-anchor="start" direction="ltr" writing-mode="lr-tb" unicode-bidi="normal" text-decoration="none" transform="matrix(1 0 0 1 2808 1340)">1.00</text></g><g><text fill="#000000" fill-opacity="1" font-family="Arial,Arial_MSFontService,sans-serif" font-style="normal" font-variant="normal" font-weight="400" font-stretch="normal" font-size="55" text-anchor="start" direction="ltr" writing-mode="lr-tb" unicode-bidi="normal" text-decoration="none" transform="matrix(1 0 0 1 2678.07 1340)">1.00</text></g><g><text fill="#000000" fill-opacity="1" font-family="Arial,Arial_MSFontService,sans-serif" font-style="normal" font-variant="normal" font-weight="400" font-stretch="normal" font-size="55" text-anchor="start" direction="ltr" writing-mode="lr-tb" unicode-bidi="normal" text-decoration="none" transform="matrix(1 0 0 1 2548.15 1340)">0.99</text></g><g><text fill="#000000" fill-opacity="1" font-family="Arial,Arial_MSFontService,sans-serif" font-style="normal" font-variant="normal" font-weight="400" font-stretch="normal" font-size="55" text-anchor="start" direction="ltr" writing-mode="lr-tb" unicode-bidi="normal" text-decoration="none" transform="matrix(1 0 0 1 2418.23 1340)">1.00</text></g><g><text fill="#000000" fill-opacity="1" font-family="Arial,Arial_MSFontService,sans-serif" font-style="normal" font-variant="normal" font-weight="400" font-stretch="normal" font-size="55" text-anchor="start" direction="ltr" writing-mode="lr-tb" unicode-bidi="normal" text-decoration="none" transform="matrix(1 0 0 1 2288.31 1340)">0.91</text></g><text fill="#FFFFFF" fill-opacity="1" font-family="Arial,Arial_MSFontService,sans-serif" font-style="normal" font-variant="normal" font-weight="700" font-stretch="normal" font-size="55" text-anchor="start" direction="ltr" writing-mode="lr-tb" unicode-bidi="normal" text-decoration="none" transform="matrix(1 0 0 1 2072.42 1340)">6</text><rect x="1891.5" y="1008.5" width="1192" height="81.9998" stroke="#000000" stroke-width="3.4375" stroke-linecap="butt" stroke-linejoin="round" stroke-miterlimit="10" stroke-opacity="1" fill="#80B2D3" fill-opacity="0.568627"/><rect x="1302.5" y="617.5" width="150" height="889" stroke="#000000" stroke-width="3.4375" stroke-linecap="butt" stroke-linejoin="round" stroke-miterlimit="10" stroke-opacity="1" fill="#80B2D3" fill-opacity="0.568627"/><rect x="1296.5" y="1253.5" width="156" height="253" stroke="#FF0000" stroke-width="9.16667" stroke-linecap="butt" stroke-linejoin="round" stroke-miterlimit="10" stroke-opacity="1" fill="none"/><rect x="1300.5" y="1016.5" width="150" height="96.9999" stroke="#FF0000" stroke-width="9.16667" stroke-linecap="butt" stroke-linejoin="round" stroke-miterlimit="10" stroke-opacity="1" fill="none"/><rect x="2531.5" y="1014.5" width="138" height="68.0001" stroke="#FF0000" stroke-width="9.16667" stroke-linecap="butt" stroke-linejoin="round" stroke-miterlimit="10" stroke-opacity="1" fill="none"/><rect x="2795.5" y="1013.5" width="261" height="69.0001" stroke="#FF0000" stroke-width="9.16667" stroke-linecap="butt" stroke-linejoin="round" stroke-miterlimit="10" stroke-opacity="1" fill="none"/><text fill="#000000" fill-opacity="1" font-family="Arial,Arial_MSFontService,sans-serif" font-style="normal" font-variant="normal" font-weight="700" font-stretch="normal" font-size="83" text-anchor="start" direction="ltr" writing-mode="lr-tb" unicode-bidi="normal" text-decoration="none" transform="matrix(1 0 0 1 1353.02 968)">?</text></g></g></svg>